<svg xmlns="http://www.w3.org/2000/svg" xmlns:xlink="http://www.w3.org/1999/xlink" width="1080" zoomAndPan="magnify" viewBox="0 0 810 443.999984" height="592" preserveAspectRatio="xMidYMid meet" version="1.2"><defs><clipPath id="5237edbcc8"><path d="M 145 128 L 371 128 L 371 338 L 145 338 Z M 145 128 "/></clipPath><clipPath id="bf983af3a6"><path d="M 125.5 164.28125 L 350.332031 105.058594 L 401.914062 300.878906 L 177.082031 360.101562 Z M 125.5 164.28125 "/></clipPath><clipPath id="6a20f3c40f"><path d="M 125.5 164.28125 L 350.332031 105.058594 L 401.914062 300.878906 L 177.082031 360.101562 Z M 125.5 164.28125 "/></clipPath><clipPath id="4de5ef8284"><path d="M 275 134 L 287 134 L 287 155 L 275 155 Z M 275 134 "/></clipPath><clipPath id="d2cfb1dd97"><path d="M 125.5 164.28125 L 350.332031 105.058594 L 401.914062 300.878906 L 177.082031 360.101562 Z M 125.5 164.28125 "/></clipPath><clipPath id="21951b9c71"><path d="M 125.5 164.28125 L 350.332031 105.058594 L 401.914062 300.878906 L 177.082031 360.101562 Z M 125.5 164.28125 "/></clipPath><clipPath id="0a3d2a30fc"><path d="M 332 179 L 354 179 L 354 196 L 332 196 Z M 332 179 "/></clipPath><clipPath id="ca570073c9"><path d="M 125.5 164.28125 L 350.332031 105.058594 L 401.914062 300.878906 L 177.082031 360.101562 Z M 125.5 164.28125 "/></clipPath><clipPath id="b8948cc837"><path d="M 125.5 164.28125 L 350.332031 105.058594 L 401.914062 300.878906 L 177.082031 360.101562 Z M 125.5 164.28125 "/></clipPath><clipPath id="179d8ade95"><path d="M 152 169 L 166 169 L 166 185 L 152 185 Z M 152 169 "/></clipPath><clipPath id="a955d0cfd6"><path d="M 125.5 164.28125 L 350.332031 105.058594 L 401.914062 300.878906 L 177.082031 360.101562 Z M 125.5 164.28125 "/></clipPath><clipPath id="41461c0332"><path d="M 125.5 164.28125 L 350.332031 105.058594 L 401.914062 300.878906 L 177.082031 360.101562 Z M 125.5 164.28125 "/></clipPath><clipPath id="8fdf304585"><path d="M 163 244 L 170 244 L 170 252 L 163 252 Z M 163 244 "/></clipPath><clipPath id="435cb32f0e"><path d="M 125.5 164.28125 L 350.332031 105.058594 L 401.914062 300.878906 L 177.082031 360.101562 Z M 125.5 164.28125 "/></clipPath><clipPath id="d44fc624b6"><path d="M 125.5 164.28125 L 350.332031 105.058594 L 401.914062 300.878906 L 177.082031 360.101562 Z M 125.5 164.28125 "/></clipPath><clipPath id="ea1a28c650"><path d="M 324 249 L 353 249 L 353 259 L 324 259 Z M 324 249 "/></clipPath><clipPath id="660da04414"><path d="M 125.5 164.28125 L 350.332031 105.058594 L 401.914062 300.878906 L 177.082031 360.101562 Z M 125.5 164.28125 "/></clipPath><clipPath id="9318fc45d0"><path d="M 125.5 164.28125 L 350.332031 105.058594 L 401.914062 300.878906 L 177.082031 360.101562 Z M 125.5 164.28125 "/></clipPath><clipPath id="0703b0e1bc"><path d="M 177 308 L 195 308 L 195 319 L 177 319 Z M 177 308 "/></clipPath><clipPath id="23328d1834"><path d="M 125.5 164.28125 L 350.332031 105.058594 L 401.914062 300.878906 L 177.082031 360.101562 Z M 125.5 164.28125 "/></clipPath><clipPath id="84476bd633"><path d="M 125.5 164.28125 L 350.332031 105.058594 L 401.914062 300.878906 L 177.082031 360.101562 Z M 125.5 164.28125 "/></clipPath><clipPath id="ebf25bcfa2"><path d="M 212 182 L 226 182 L 226 201 L 212 201 Z M 212 182 "/></clipPath><clipPath id="90d3e925d5"><path d="M 125.5 164.28125 L 350.332031 105.058594 L 401.914062 300.878906 L 177.082031 360.101562 Z M 125.5 164.28125 "/></clipPath><clipPath id="160fec262b"><path d="M 125.5 164.28125 L 350.332031 105.058594 L 401.914062 300.878906 L 177.082031 360.101562 Z M 125.5 164.28125 "/></clipPath><clipPath id="ab63b2df07"><path d="M 663 60 L 706 60 L 706 123 L 663 123 Z M 663 60 "/></clipPath><clipPath id="6a718e11eb"><path d="M 677.398438 44.398438 L 760.855469 68.976562 L 731.40625 168.980469 L 647.949219 144.402344 Z M 677.398438 44.398438 "/></clipPath><clipPath id="693e75d6be"><path d="M 677.398438 44.398438 L 760.855469 68.976562 L 731.40625 168.980469 L 647.949219 144.402344 Z M 677.398438 44.398438 "/></clipPath><clipPath id="955592b6ac"><path d="M 663 59 L 706 59 L 706 123 L 663 123 Z M 663 59 "/></clipPath><clipPath id="71f75a7071"><path d="M 677.398438 44.398438 L 760.855469 68.976562 L 731.40625 168.980469 L 647.949219 144.402344 Z M 677.398438 44.398438 "/></clipPath><clipPath id="1c94a6be35"><path d="M 677.398438 44.398438 L 760.855469 68.976562 L 731.40625 168.980469 L 647.949219 144.402344 Z M 677.398438 44.398438 "/></clipPath><clipPath id="9b103b4081"><path d="M 702 71 L 744 71 L 744 134 L 702 134 Z M 702 71 "/></clipPath><clipPath id="6658e81f18"><path d="M 677.398438 44.398438 L 760.855469 68.976562 L 731.40625 168.980469 L 647.949219 144.402344 Z M 677.398438 44.398438 "/></clipPath><clipPath id="5f983e1493"><path d="M 677.398438 44.398438 L 760.855469 68.976562 L 731.40625 168.980469 L 647.949219 144.402344 Z M 677.398438 44.398438 "/></clipPath><clipPath id="af6aadd746"><path d="M 701 71 L 745 71 L 745 134 L 701 134 Z M 701 71 "/></clipPath><clipPath id="bba74d3677"><path d="M 677.398438 44.398438 L 760.855469 68.976562 L 731.40625 168.980469 L 647.949219 144.402344 Z M 677.398438 44.398438 "/></clipPath><clipPath id="73d8b98238"><path d="M 677.398438 44.398438 L 760.855469 68.976562 L 731.40625 168.980469 L 647.949219 144.402344 Z M 677.398438 44.398438 "/></clipPath><clipPath id="66db091261"><path d="M 712 85 L 734 85 L 734 106 L 712 106 Z M 712 85 "/></clipPath><clipPath id="609c4a063b"><path d="M 677.398438 44.398438 L 760.855469 68.976562 L 731.40625 168.980469 L 647.949219 144.402344 Z M 677.398438 44.398438 "/></clipPath><clipPath id="6955bf1e8b"><path d="M 677.398438 44.398438 L 760.855469 68.976562 L 731.40625 168.980469 L 647.949219 144.402344 Z M 677.398438 44.398438 "/></clipPath><clipPath id="39dae7eacf"><path d="M 711 99 L 733 99 L 733 120 L 711 120 Z M 711 99 "/></clipPath><clipPath id="783b21e65d"><path d="M 677.398438 44.398438 L 760.855469 68.976562 L 731.40625 168.980469 L 647.949219 144.402344 Z M 677.398438 44.398438 "/></clipPath><clipPath id="fc5edb5d15"><path d="M 677.398438 44.398438 L 760.855469 68.976562 L 731.40625 168.980469 L 647.949219 144.402344 Z M 677.398438 44.398438 "/></clipPath><clipPath id="dd5e59a525"><path d="M 674 74 L 696 74 L 696 95 L 674 95 Z M 674 74 "/></clipPath><clipPath id="f128794aea"><path d="M 677.398438 44.398438 L 760.855469 68.976562 L 731.40625 168.980469 L 647.949219 144.402344 Z M 677.398438 44.398438 "/></clipPath><clipPath id="92d8bb0e05"><path d="M 677.398438 44.398438 L 760.855469 68.976562 L 731.40625 168.980469 L 647.949219 144.402344 Z M 677.398438 44.398438 "/></clipPath><clipPath id="95cbd08b8c"><path d="M 673 88 L 695 88 L 695 109 L 673 109 Z M 673 88 "/></clipPath><clipPath id="19cd7bba62"><path d="M 677.398438 44.398438 L 760.855469 68.976562 L 731.40625 168.980469 L 647.949219 144.402344 Z M 677.398438 44.398438 "/></clipPath><clipPath id="05718d44ee"><path d="M 677.398438 44.398438 L 760.855469 68.976562 L 731.40625 168.980469 L 647.949219 144.402344 Z M 677.398438 44.398438 "/></clipPath><clipPath id="35951b522f"><path d="M 702 54 L 719 54 L 719 72 L 702 72 Z M 702 54 "/></clipPath><clipPath id="775fb89483"><path d="M 677.398438 44.398438 L 760.855469 68.976562 L 731.40625 168.980469 L 647.949219 144.402344 Z M 677.398438 44.398438 "/></clipPath><clipPath id="f52d5ac085"><path d="M 677.398438 44.398438 L 760.855469 68.976562 L 731.40625 168.980469 L 647.949219 144.402344 Z M 677.398438 44.398438 "/></clipPath><clipPath id="8ea79c4aa6"><path d="M 740 65 L 758 65 L 758 83 L 740 83 Z M 740 65 "/></clipPath><clipPath id="7a4963fe11"><path d="M 677.398438 44.398438 L 760.855469 68.976562 L 731.40625 168.980469 L 647.949219 144.402344 Z M 677.398438 44.398438 "/></clipPath><clipPath id="316ef46160"><path d="M 677.398438 44.398438 L 760.855469 68.976562 L 731.40625 168.980469 L 647.949219 144.402344 Z M 677.398438 44.398438 "/></clipPath><clipPath id="0603630d29"><path d="M 669 128 L 712 128 L 712 151 L 669 151 Z M 669 128 "/></clipPath><clipPath id="a010097669"><path d="M 677.398438 44.398438 L 760.855469 68.976562 L 731.40625 168.980469 L 647.949219 144.402344 Z M 677.398438 44.398438 "/></clipPath><clipPath id="5b5d164eb6"><path d="M 677.398438 44.398438 L 760.855469 68.976562 L 731.40625 168.980469 L 647.949219 144.402344 Z M 677.398438 44.398438 "/></clipPath><clipPath id="1353de4b77"><path d="M 678 140 L 712 140 L 712 156 L 678 156 Z M 678 140 "/></clipPath><clipPath id="8f812cc2f4"><path d="M 677.398438 44.398438 L 760.855469 68.976562 L 731.40625 168.980469 L 647.949219 144.402344 Z M 677.398438 44.398438 "/></clipPath><clipPath id="8b1444a0be"><path d="M 677.398438 44.398438 L 760.855469 68.976562 L 731.40625 168.980469 L 647.949219 144.402344 Z M 677.398438 44.398438 "/></clipPath><clipPath id="1d3609ffd2"><path d="M 668 127 L 714 127 L 714 157 L 668 157 Z M 668 127 "/></clipPath><clipPath id="07afd03865"><path d="M 677.398438 44.398438 L 760.855469 68.976562 L 731.40625 168.980469 L 647.949219 144.402344 Z M 677.398438 44.398438 "/></clipPath><clipPath id="91bee970b2"><path d="M 677.398438 44.398438 L 760.855469 68.976562 L 731.40625 168.980469 L 647.949219 144.402344 Z M 677.398438 44.398438 "/></clipPath><clipPath id="3256db58de"><path d="M 44.207031 232.554688 L 65 232.554688 L 65 252 L 44.207031 252 Z M 44.207031 232.554688 "/></clipPath><clipPath id="b5b900c014"><path d="M 127 232.554688 L 147.707031 232.554688 L 147.707031 252 L 127 252 Z M 127 232.554688 "/></clipPath><clipPath id="4ab677c6f0"><path d="M 656 261.429688 L 701.71875 261.429688 L 701.71875 303 L 656 303 Z M 656 261.429688 "/></clipPath><clipPath id="9375c2db37"><path d="M 713.171875 240.4375 L 736 240.4375 L 736 261.4375 L 713.171875 261.4375 Z M 713.171875 240.4375 "/></clipPath><clipPath id="87ddc9e2ec"><path d="M 26 28 L 95.820312 28 L 95.820312 31 L 26 31 Z M 26 28 "/></clipPath><clipPath id="34e5c9d8aa"><path d="M 7.414062 16 L 35 16 L 35 43 L 7.414062 43 Z M 7.414062 16 "/></clipPath><clipPath id="7e972fce78"><path d="M 755.042969 386.152344 L 756 386.152344 L 756 431.902344 L 755.042969 431.902344 Z M 755.042969 386.152344 "/></clipPath><clipPath id="4221c39242"><path d="M 755.042969 386.152344 L 800.722656 386.152344 L 800.722656 431.902344 L 755.042969 431.902344 Z M 755.042969 386.152344 "/></clipPath><clipPath id="dfe2d7f06c"><path d="M 370 110 L 552 110 L 552 137 L 370 137 Z M 370 110 "/></clipPath><clipPath id="dabf451c6e"><path d="M 369.703125 117.097656 L 550.921875 107 L 552.214844 130.214844 L 370.996094 140.3125 Z M 369.703125 117.097656 "/></clipPath><clipPath id="066398bcc2"><path d="M 365.300781 38.105469 L 546.519531 28.003906 L 556.621094 209.222656 L 375.402344 219.324219 Z M 365.300781 38.105469 "/></clipPath><clipPath id="a61ef1524c"><path d="M 17.695312 384.214844 L 20 384.214844 L 20 387 L 17.695312 387 Z M 17.695312 384.214844 "/></clipPath><clipPath id="e03d820b88"><path d="M 29 384.214844 L 32 384.214844 L 32 387 L 29 387 Z M 29 384.214844 "/></clipPath><clipPath id="97b8b6aa7c"><path d="M 41 384.214844 L 44 384.214844 L 44 387 L 41 387 Z M 41 384.214844 "/></clipPath><clipPath id="e9a87ab649"><path d="M 52 384.214844 L 55.195312 384.214844 L 55.195312 387 L 52 387 Z M 52 384.214844 "/></clipPath><clipPath id="f7f5347c13"><path d="M 17.695312 396 L 20 396 L 20 399 L 17.695312 399 Z M 17.695312 396 "/></clipPath><clipPath id="a32b74d2e7"><path d="M 52 396 L 55.195312 396 L 55.195312 399 L 52 399 Z M 52 396 "/></clipPath><clipPath id="978fd5fb94"><path d="M 17.695312 407 L 20 407 L 20 411 L 17.695312 411 Z M 17.695312 407 "/></clipPath><clipPath id="4a685d350e"><path d="M 52 407 L 55.195312 407 L 55.195312 411 L 52 411 Z M 52 407 "/></clipPath><clipPath id="24388313c2"><path d="M 17.695312 419 L 20 419 L 20 422 L 17.695312 422 Z M 17.695312 419 "/></clipPath><clipPath id="9e608f1302"><path d="M 52 419 L 55.195312 419 L 55.195312 422 L 52 422 Z M 52 419 "/></clipPath><clipPath id="a2990c210f"><path d="M 17.695312 431 L 20 431 L 20 433.714844 L 17.695312 433.714844 Z M 17.695312 431 "/></clipPath><clipPath id="3af11af13e"><path d="M 29 431 L 32 431 L 32 433.714844 L 29 433.714844 Z M 29 431 "/></clipPath><clipPath id="eb639b37d3"><path d="M 41 431 L 44 431 L 44 433.714844 L 41 433.714844 Z M 41 431 "/></clipPath><clipPath id="23cd801eeb"><path d="M 52 431 L 55.195312 431 L 55.195312 433.714844 L 52 433.714844 Z M 52 431 "/></clipPath><clipPath id="91e1567e9b"><path d="M 189 113 L 233 113 L 233 157 L 189 157 Z M 189 113 "/></clipPath><clipPath id="3ee860c9c7"><path d="M 120.296875 115.921875 L 232.003906 112.832031 L 234.574219 205.792969 L 122.867188 208.886719 Z M 120.296875 115.921875 "/></clipPath><clipPath id="a6e6a2d109"><path d="M 120.296875 115.921875 L 232.003906 112.832031 L 234.574219 205.792969 L 122.867188 208.886719 Z M 120.296875 115.921875 "/></clipPath><clipPath id="788af19bc9"><path d="M 128 148 L 213 148 L 213 205 L 128 205 Z M 128 148 "/></clipPath><clipPath id="500f46fe7e"><path d="M 120.296875 115.921875 L 232.003906 112.832031 L 234.574219 205.792969 L 122.867188 208.886719 Z M 120.296875 115.921875 "/></clipPath><clipPath id="1240795251"><path d="M 120.296875 115.921875 L 232.003906 112.832031 L 234.574219 205.792969 L 122.867188 208.886719 Z M 120.296875 115.921875 "/></clipPath><clipPath id="18de6c98fe"><path d="M 122 174 L 141 174 L 141 194 L 122 194 Z M 122 174 "/></clipPath><clipPath id="a23e95896f"><path d="M 120.296875 115.921875 L 232.003906 112.832031 L 234.574219 205.792969 L 122.867188 208.886719 Z M 120.296875 115.921875 "/></clipPath><clipPath id="ad73cf3333"><path d="M 120.296875 115.921875 L 232.003906 112.832031 L 234.574219 205.792969 L 122.867188 208.886719 Z M 120.296875 115.921875 "/></clipPath><clipPath id="0f4f777e81"><path d="M 771.949219 0.015625 L 776 0.015625 L 776 4 L 771.949219 4 Z M 771.949219 0.015625 "/></clipPath><clipPath id="d50d3d2c92"><path d="M 789 0.015625 L 793 0.015625 L 793 4 L 789 4 Z M 789 0.015625 "/></clipPath><clipPath id="504cc33f5d"><path d="M 806 0.015625 L 810 0.015625 L 810 4 L 806 4 Z M 806 0.015625 "/></clipPath><clipPath id="0f2f6adfa8"><path d="M 771.949219 17 L 776 17 L 776 21 L 771.949219 21 Z M 771.949219 17 "/></clipPath><clipPath id="9cce9b2d27"><path d="M 771.949219 35 L 776 35 L 776 38.234375 L 771.949219 38.234375 Z M 771.949219 35 "/></clipPath><clipPath id="51e97efccd"><path d="M 789 35 L 793 35 L 793 38.234375 L 789 38.234375 Z M 789 35 "/></clipPath><clipPath id="5f149f5e9f"><path d="M 806 35 L 810 35 L 810 38.234375 L 806 38.234375 Z M 806 35 "/></clipPath></defs><g id="2b4babc723"><rect x="0" width="810" y="0" height="443.999984" style="fill:#ffffff;fill-opacity:1;stroke:none;"/><rect x="0" width="810" y="0" height="443.999984" style="fill:#ffffff;fill-opacity:1;stroke:none;"/><g clip-rule="nonzero" clip-path="url(#5237edbcc8)"><g clip-rule="nonzero" clip-path="url(#bf983af3a6)"><g clip-rule="nonzero" clip-path="url(#6a20f3c40f)"><path style=" stroke:none;fill-rule:nonzero;fill:#93c3da;fill-opacity:1;" d="M 194.273438 187.609375 C 212.917969 216.582031 226.265625 219.277344 235.976562 196.039062 C 236.722656 194.246094 238.375 192.953125 240.308594 192.777344 C 241.59375 192.660156 242.882812 193.058594 243.925781 193.816406 C 259.351562 205.058594 266.972656 198.1875 269.972656 188.113281 C 272.949219 178.117188 269.417969 167.460938 269.871094 157.042969 C 270.535156 141.871094 277.160156 127.523438 288.417969 128.96875 C 290.113281 129.183594 291.675781 129.96875 293.152344 130.828125 C 302.289062 136.160156 306.40625 146.949219 300.742188 155.882812 C 288.390625 175.367188 269.25 199.128906 288.789062 210.910156 C 294.601562 214.414062 302.0625 213.90625 307.488281 209.835938 C 326.851562 195.308594 344.167969 160.796875 365.992188 177.742188 C 370.367188 181.136719 371.53125 187.105469 370.285156 192.5 C 368.949219 198.289062 364.8125 203.027344 359.085938 204.609375 C 335.070312 211.230469 296.8125 217.558594 303.082031 241.332031 C 305.015625 248.675781 312.539062 253.203125 319.8125 251.011719 C 335.5625 246.261719 353.652344 232.035156 362.261719 256.253906 C 364.484375 262.511719 364.125 270.140625 358.859375 274.1875 C 355.992188 276.386719 352.617188 277.667969 349.257812 278.347656 C 340.242188 280.175781 331.835938 274.894531 323.417969 271.191406 C 320.0625 269.714844 316.953125 268.773438 314.136719 268.226562 C 304.589844 266.367188 293.25 273.648438 295.265625 283.164062 C 295.292969 283.289062 295.320312 283.414062 295.355469 283.539062 C 296.65625 288.484375 311.925781 297.203125 315.015625 301.28125 C 324.476562 313.773438 308.34375 325.300781 296.621094 318.46875 C 291.414062 315.429688 285.191406 296.636719 276.480469 295.5625 C 262.8125 293.871094 269.804688 309.242188 261.601562 312.703125 C 254.296875 315.789062 248.847656 309.992188 245.429688 304.554688 C 242.753906 300.292969 239.195312 296.195312 234.164062 296.015625 C 232.171875 295.945312 230.242188 296.144531 228.398438 296.535156 C 216.835938 298.984375 212.363281 311.8125 206.226562 321.917969 C 202.089844 328.730469 196.046875 334.65625 187.203125 337.296875 C 179.25 339.671875 172.222656 332.898438 170.804688 324.722656 C 169.25 315.789062 174.570312 307.164062 183.277344 304.644531 C 210.304688 296.824219 232.546875 288.96875 196.949219 260.109375 C 193.484375 257.300781 188.503906 257.269531 184.414062 259.050781 C 177.097656 262.238281 167.179688 264.640625 163.351562 261.003906 C 156.8125 254.792969 156.597656 246.882812 161.65625 241.175781 C 167.167969 234.957031 182.980469 242.488281 193 246.722656 C 194.980469 247.5625 197.222656 247.757812 199.1875 246.878906 C 213.976562 240.238281 211.65625 217.988281 190.15625 205.445312 C 180.15625 199.613281 133.785156 195.613281 147.753906 171.652344 C 156.039062 156.253906 176.8125 160.476562 194.273438 187.609375 Z M 194.273438 187.609375 "/></g></g></g><g clip-rule="nonzero" clip-path="url(#4de5ef8284)"><g clip-rule="nonzero" clip-path="url(#d2cfb1dd97)"><g clip-rule="nonzero" clip-path="url(#21951b9c71)"><path style=" stroke:none;fill-rule:nonzero;fill:#93c3da;fill-opacity:1;" d="M 283.558594 135.003906 C 278.777344 134.515625 276.621094 145.222656 275.632812 152.546875 C 275.429688 154.050781 277.074219 154.898438 278.082031 153.765625 C 283.984375 147.164062 289.761719 135.632812 283.558594 135.003906 Z M 283.558594 135.003906 "/></g></g></g><g clip-rule="nonzero" clip-path="url(#0a3d2a30fc)"><g clip-rule="nonzero" clip-path="url(#ca570073c9)"><g clip-rule="nonzero" clip-path="url(#b8948cc837)"><path style=" stroke:none;fill-rule:nonzero;fill:#93c3da;fill-opacity:1;" d="M 351.363281 185.53125 C 344.410156 187.449219 335.941406 192.660156 332.085938 195.398438 C 333.378906 187.316406 343.847656 182.101562 350.285156 180.03125 C 351.316406 179.699219 352.441406 180.269531 352.996094 181.351562 C 353.859375 183.027344 352.976562 185.085938 351.363281 185.53125 Z M 351.363281 185.53125 "/></g></g></g><g clip-rule="nonzero" clip-path="url(#179d8ade95)"><g clip-rule="nonzero" clip-path="url(#a955d0cfd6)"><g clip-rule="nonzero" clip-path="url(#41461c0332)"><path style=" stroke:none;fill-rule:nonzero;fill:#93c3da;fill-opacity:1;" d="M 164.976562 179.039062 C 163.683594 182.972656 159.925781 185.273438 156.582031 184.175781 C 153.238281 183.078125 151.574219 179 152.863281 175.066406 C 154.152344 171.132812 157.910156 168.832031 161.253906 169.929688 C 164.601562 171.027344 166.265625 175.105469 164.976562 179.039062 Z M 164.976562 179.039062 "/></g></g></g><g clip-rule="nonzero" clip-path="url(#8fdf304585)"><g clip-rule="nonzero" clip-path="url(#435cb32f0e)"><g clip-rule="nonzero" clip-path="url(#d44fc624b6)"><path style=" stroke:none;fill-rule:nonzero;fill:#93c3da;fill-opacity:1;" d="M 169.585938 248.976562 C 168.921875 251 166.988281 252.1875 165.265625 251.621094 C 163.542969 251.054688 162.6875 248.957031 163.351562 246.929688 C 164.015625 244.90625 165.949219 243.722656 167.671875 244.285156 C 169.394531 244.851562 170.25 246.949219 169.585938 248.976562 Z M 169.585938 248.976562 "/></g></g></g><g clip-rule="nonzero" clip-path="url(#ea1a28c650)"><g clip-rule="nonzero" clip-path="url(#660da04414)"><g clip-rule="nonzero" clip-path="url(#9318fc45d0)"><path style=" stroke:none;fill-rule:nonzero;fill:#93c3da;fill-opacity:1;" d="M 352.234375 255.183594 C 351.417969 257.675781 349.039062 259.132812 346.921875 258.4375 C 344.800781 257.742188 323.734375 256.296875 324.554688 253.804688 C 325.371094 251.3125 347.761719 248.71875 349.878906 249.414062 C 352 250.105469 353.054688 252.691406 352.234375 255.183594 Z M 352.234375 255.183594 "/></g></g></g><g clip-rule="nonzero" clip-path="url(#0703b0e1bc)"><g clip-rule="nonzero" clip-path="url(#23328d1834)"><g clip-rule="nonzero" clip-path="url(#84476bd633)"><path style=" stroke:none;fill-rule:nonzero;fill:#93c3da;fill-opacity:1;" d="M 183.691406 317.890625 C 181.691406 319.082031 179.25 318.671875 178.238281 316.972656 C 177.226562 315.273438 178.023438 312.929688 180.023438 311.738281 C 182.019531 310.546875 193.660156 307.324219 194.671875 309.023438 C 195.6875 310.722656 185.6875 316.699219 183.691406 317.890625 Z M 183.691406 317.890625 "/></g></g></g><g clip-rule="nonzero" clip-path="url(#ebf25bcfa2)"><g clip-rule="nonzero" clip-path="url(#90d3e925d5)"><g clip-rule="nonzero" clip-path="url(#160fec262b)"><path style=" stroke:none;fill-rule:nonzero;fill:#93c3da;fill-opacity:1;" d="M 218.828125 182.976562 C 209.359375 184.507812 212.933594 194.378906 216.679688 200.222656 C 217.328125 201.230469 218.8125 200.824219 219.113281 199.671875 C 221.785156 189.425781 231.414062 180.941406 218.828125 182.976562 Z M 218.828125 182.976562 "/></g></g></g><g style="fill:#203f9a;fill-opacity:1;"><g transform="translate(182.420427, 283.752125)"><path style="stroke:none" d="M 28.546875 -2.265625 L 8.96875 -0.71875 L 1.515625 -94.84375 L 33.609375 -97.375 C 39.421875 -97.84375 44.8125 -97.191406 49.78125 -95.421875 C 54.75 -93.660156 59.125 -91.128906 62.90625 -87.828125 C 66.6875 -84.523438 69.722656 -80.691406 72.015625 -76.328125 C 74.304688 -71.972656 75.644531 -67.398438 76.03125 -62.609375 C 76.664062 -54.597656 75.484375 -47.273438 72.484375 -40.640625 C 69.492188 -34.003906 65.09375 -28.632812 59.28125 -24.53125 C 53.46875 -20.425781 46.597656 -18.0625 38.671875 -17.4375 L 27.421875 -16.546875 Z M 26 -34.359375 L 36.75 -35.203125 C 41.300781 -35.566406 45.078125 -36.863281 48.078125 -39.09375 C 51.078125 -41.320312 53.242188 -44.179688 54.578125 -47.671875 C 55.921875 -51.171875 56.429688 -54.941406 56.109375 -58.984375 C 55.816406 -62.691406 54.753906 -66.171875 52.921875 -69.421875 C 51.097656 -72.671875 48.625 -75.273438 45.5 -77.234375 C 42.382812 -79.191406 38.675781 -80 34.375 -79.65625 L 22.484375 -78.71875 Z M 26 -34.359375 "/></g></g><g style="fill:#203f9a;fill-opacity:1;"><g transform="translate(266.703104, 277.071466)"><path style="stroke:none" d="M 31.609375 -68.125 C 36.148438 -68.476562 40.535156 -67.953125 44.765625 -66.546875 C 48.992188 -65.140625 52.765625 -63.019531 56.078125 -60.1875 C 59.390625 -57.363281 62.085938 -54.019531 64.171875 -50.15625 C 66.253906 -46.289062 67.484375 -42.046875 67.859375 -37.421875 C 68.210938 -32.867188 67.664062 -28.519531 66.21875 -24.375 C 64.769531 -20.238281 62.628906 -16.507812 59.796875 -13.1875 C 56.972656 -9.863281 53.582031 -7.175781 49.625 -5.125 C 45.675781 -3.082031 41.429688 -1.882812 36.890625 -1.53125 C 32.335938 -1.164062 27.988281 -1.6875 23.84375 -3.09375 C 19.707031 -4.5 16 -6.617188 12.71875 -9.453125 C 9.445312 -12.296875 6.785156 -15.648438 4.734375 -19.515625 C 2.691406 -23.378906 1.492188 -27.585938 1.140625 -32.140625 C 0.648438 -38.285156 1.695312 -44.003906 4.28125 -49.296875 C 6.875 -54.585938 10.554688 -58.925781 15.328125 -62.3125 C 20.109375 -65.695312 25.535156 -67.632812 31.609375 -68.125 Z M 35.484375 -19.359375 C 39.847656 -19.703125 43.367188 -21.414062 46.046875 -24.5 C 48.734375 -27.59375 49.898438 -31.414062 49.546875 -35.96875 C 49.191406 -40.425781 47.441406 -43.992188 44.296875 -46.671875 C 41.148438 -49.359375 37.394531 -50.53125 33.03125 -50.1875 C 28.894531 -49.851562 25.488281 -48.113281 22.8125 -44.96875 C 20.144531 -41.832031 18.988281 -38.035156 19.34375 -33.578125 C 19.695312 -29.023438 21.441406 -25.429688 24.578125 -22.796875 C 27.710938 -20.171875 31.347656 -19.023438 35.484375 -19.359375 Z M 35.484375 -19.359375 "/></g></g><g style="fill:#203f9a;fill-opacity:1;"><g transform="translate(340.750554, 271.202101)"><path style="stroke:none" d="M 37.6875 -68.34375 L 39.15625 -49.765625 C 37.425781 -50.222656 35.507812 -50.367188 33.40625 -50.203125 C 29.945312 -49.929688 27.035156 -48.40625 24.671875 -45.625 C 22.304688 -42.851562 21.332031 -38.898438 21.75 -33.765625 L 24.265625 -1.921875 L 6.328125 -0.5 L 1.265625 -64.3125 L 19.203125 -65.734375 L 19.5625 -61.3125 C 21.332031 -63.5625 23.441406 -65.226562 25.890625 -66.3125 C 28.347656 -67.40625 30.796875 -68.050781 33.234375 -68.25 C 33.992188 -68.3125 34.710938 -68.367188 35.390625 -68.421875 C 36.066406 -68.472656 36.832031 -68.445312 37.6875 -68.34375 Z M 37.6875 -68.34375 "/></g></g><g style="fill:#203f9a;fill-opacity:1;"><g transform="translate(385.229584, 267.676475)"><path style="stroke:none" d="M 39.96875 -50.734375 L 24.796875 -49.53125 L 26.40625 -29.1875 C 26.695312 -25.5625 28.34375 -23.019531 31.34375 -21.5625 C 34.351562 -20.101562 37.914062 -19.539062 42.03125 -19.875 L 43.4375 -2.046875 C 37.125 -1.546875 31.410156 -2.257812 26.296875 -4.1875 C 21.191406 -6.113281 17.0625 -9.066406 13.90625 -13.046875 C 10.75 -17.035156 8.953125 -21.769531 8.515625 -27.25 L 6.859375 -48.109375 L -2.734375 -47.34375 L -4.046875 -63.890625 L 5.546875 -64.65625 L 4.890625 -73 L 21.796875 -87.421875 L 23.484375 -66.078125 L 38.65625 -67.28125 Z M 39.96875 -50.734375 "/></g></g><g style="fill:#203f9a;fill-opacity:1;"><g transform="translate(430.845832, 264.060707)"><path style="stroke:none" d="M 35.671875 -98.4375 L 37.140625 -80 C 33.023438 -79.675781 29.785156 -78.316406 27.421875 -75.921875 C 25.066406 -73.523438 24.015625 -70.769531 24.265625 -67.65625 L 24.375 -66.140625 L 36.890625 -67.140625 L 38.203125 -50.59375 L 25.6875 -49.59375 L 29.4375 -2.328125 L 11.5 -0.90625 L 7.75 -48.171875 L -0.984375 -47.484375 L -2.296875 -64.03125 L 6.4375 -64.71875 L 6.375 -65.59375 C 5.90625 -71.488281 6.921875 -76.820312 9.421875 -81.59375 C 11.929688 -86.375 15.503906 -90.265625 20.140625 -93.265625 C 24.773438 -96.265625 29.953125 -97.988281 35.671875 -98.4375 Z M 35.671875 -98.4375 "/></g></g><g style="fill:#203f9a;fill-opacity:1;"><g transform="translate(475.830312, 260.495016)"><path style="stroke:none" d="M 31.609375 -68.125 C 36.148438 -68.476562 40.535156 -67.953125 44.765625 -66.546875 C 48.992188 -65.140625 52.765625 -63.019531 56.078125 -60.1875 C 59.390625 -57.363281 62.085938 -54.019531 64.171875 -50.15625 C 66.253906 -46.289062 67.484375 -42.046875 67.859375 -37.421875 C 68.210938 -32.867188 67.664062 -28.519531 66.21875 -24.375 C 64.769531 -20.238281 62.628906 -16.507812 59.796875 -13.1875 C 56.972656 -9.863281 53.582031 -7.175781 49.625 -5.125 C 45.675781 -3.082031 41.429688 -1.882812 36.890625 -1.53125 C 32.335938 -1.164062 27.988281 -1.6875 23.84375 -3.09375 C 19.707031 -4.5 16 -6.617188 12.71875 -9.453125 C 9.445312 -12.296875 6.785156 -15.648438 4.734375 -19.515625 C 2.691406 -23.378906 1.492188 -27.585938 1.140625 -32.140625 C 0.648438 -38.285156 1.695312 -44.003906 4.28125 -49.296875 C 6.875 -54.585938 10.554688 -58.925781 15.328125 -62.3125 C 20.109375 -65.695312 25.535156 -67.632812 31.609375 -68.125 Z M 35.484375 -19.359375 C 39.847656 -19.703125 43.367188 -21.414062 46.046875 -24.5 C 48.734375 -27.59375 49.898438 -31.414062 49.546875 -35.96875 C 49.191406 -40.425781 47.441406 -43.992188 44.296875 -46.671875 C 41.148438 -49.359375 37.394531 -50.53125 33.03125 -50.1875 C 28.894531 -49.851562 25.488281 -48.113281 22.8125 -44.96875 C 20.144531 -41.832031 18.988281 -38.035156 19.34375 -33.578125 C 19.695312 -29.023438 21.441406 -25.429688 24.578125 -22.796875 C 27.710938 -20.171875 31.347656 -19.023438 35.484375 -19.359375 Z M 35.484375 -19.359375 "/></g></g><g style="fill:#203f9a;fill-opacity:1;"><g transform="translate(549.877769, 254.625651)"><path style="stroke:none" d="M -1.125 -94.625 L 16.8125 -96.046875 L 24.265625 -1.921875 L 6.328125 -0.5 Z M -1.125 -94.625 "/></g></g><g style="fill:#203f9a;fill-opacity:1;"><g transform="translate(580.457094, 252.201783)"><path style="stroke:none" d="M 9.203125 -76.265625 C 6.429688 -76.046875 3.929688 -76.863281 1.703125 -78.71875 C -0.515625 -80.570312 -1.738281 -82.890625 -1.96875 -85.671875 C -2.164062 -88.191406 -1.3125 -90.546875 0.59375 -92.734375 C 2.5 -94.921875 4.835938 -96.125 7.609375 -96.34375 C 10.640625 -96.582031 13.269531 -95.789062 15.5 -93.96875 C 17.726562 -92.15625 18.941406 -89.945312 19.140625 -87.34375 C 19.367188 -84.5625 18.523438 -82.078125 16.609375 -79.890625 C 14.703125 -77.710938 12.234375 -76.503906 9.203125 -76.265625 Z M 19.203125 -65.734375 L 24.265625 -1.921875 L 6.328125 -0.5 L 1.265625 -64.3125 Z M 19.203125 -65.734375 "/></g></g><g style="fill:#203f9a;fill-opacity:1;"><g transform="translate(611.036418, 249.777916)"><path style="stroke:none" d="M 31.609375 -68.125 C 36.148438 -68.476562 40.535156 -67.953125 44.765625 -66.546875 C 48.992188 -65.140625 52.765625 -63.019531 56.078125 -60.1875 C 59.390625 -57.363281 62.085938 -54.019531 64.171875 -50.15625 C 66.253906 -46.289062 67.484375 -42.046875 67.859375 -37.421875 C 68.210938 -32.867188 67.664062 -28.519531 66.21875 -24.375 C 64.769531 -20.238281 62.628906 -16.507812 59.796875 -13.1875 C 56.972656 -9.863281 53.582031 -7.175781 49.625 -5.125 C 45.675781 -3.082031 41.429688 -1.882812 36.890625 -1.53125 C 32.335938 -1.164062 27.988281 -1.6875 23.84375 -3.09375 C 19.707031 -4.5 16 -6.617188 12.71875 -9.453125 C 9.445312 -12.296875 6.785156 -15.648438 4.734375 -19.515625 C 2.691406 -23.378906 1.492188 -27.585938 1.140625 -32.140625 C 0.648438 -38.285156 1.695312 -44.003906 4.28125 -49.296875 C 6.875 -54.585938 10.554688 -58.925781 15.328125 -62.3125 C 20.109375 -65.695312 25.535156 -67.632812 31.609375 -68.125 Z M 35.484375 -19.359375 C 39.847656 -19.703125 43.367188 -21.414062 46.046875 -24.5 C 48.734375 -27.59375 49.898438 -31.414062 49.546875 -35.96875 C 49.191406 -40.425781 47.441406 -43.992188 44.296875 -46.671875 C 41.148438 -49.359375 37.394531 -50.53125 33.03125 -50.1875 C 28.894531 -49.851562 25.488281 -48.113281 22.8125 -44.96875 C 20.144531 -41.832031 18.988281 -38.035156 19.34375 -33.578125 C 19.695312 -29.023438 21.441406 -25.429688 24.578125 -22.796875 C 27.710938 -20.171875 31.347656 -19.023438 35.484375 -19.359375 Z M 35.484375 -19.359375 "/></g></g><g clip-rule="nonzero" clip-path="url(#ab63b2df07)"><g clip-rule="nonzero" clip-path="url(#6a718e11eb)"><g clip-rule="nonzero" clip-path="url(#693e75d6be)"><path style=" stroke:none;fill-rule:nonzero;fill:#ffffff;fill-opacity:1;" d="M 703.058594 96.675781 C 702.398438 98.917969 701.609375 101.054688 700.707031 103.074219 C 694.867188 116.160156 684.433594 124.167969 675.542969 121.550781 C 665.28125 118.53125 660.964844 102.492188 665.902344 85.734375 C 670.835938 68.976562 683.15625 57.839844 693.414062 60.859375 C 695.726562 61.542969 697.738281 62.882812 699.410156 64.746094 C 705.152344 71.144531 706.882812 83.695312 703.058594 96.675781 Z M 703.058594 96.675781 "/></g></g></g><g clip-rule="nonzero" clip-path="url(#955592b6ac)"><g clip-rule="nonzero" clip-path="url(#71f75a7071)"><g clip-rule="nonzero" clip-path="url(#1c94a6be35)"><path style=" stroke:none;fill-rule:evenodd;fill:#203f9a;fill-opacity:1;" d="M 678.09375 66.359375 C 673.21875 70.765625 668.960938 77.632812 666.519531 85.917969 C 664.082031 94.199219 663.9375 102.277344 665.648438 108.625 C 667.359375 114.988281 670.894531 119.507812 675.726562 120.929688 C 679.914062 122.164062 684.539062 120.917969 688.882812 117.683594 C 693.226562 114.449219 697.234375 109.273438 700.117188 102.808594 C 701.007812 100.816406 701.789062 98.707031 702.4375 96.492188 C 706.230469 83.621094 704.460938 71.339844 698.929688 65.175781 C 697.328125 63.390625 695.417969 62.121094 693.234375 61.480469 C 688.398438 60.054688 682.980469 61.941406 678.09375 66.359375 Z M 677.230469 65.398438 C 682.300781 60.816406 688.171875 58.640625 693.597656 60.242188 C 696.039062 60.960938 698.148438 62.371094 699.890625 64.3125 C 705.84375 70.949219 707.535156 83.765625 703.679688 96.859375 C 703.011719 99.125 702.210938 101.289062 701.296875 103.335938 C 698.34375 109.957031 694.210938 115.328125 689.65625 118.71875 C 685.101562 122.105469 680.0625 123.554688 675.363281 122.167969 C 669.933594 120.570312 666.179688 115.5625 664.402344 108.960938 C 662.621094 102.347656 662.785156 94.027344 665.28125 85.550781 C 667.777344 77.078125 672.148438 69.992188 677.230469 65.398438 Z M 677.230469 65.398438 "/></g></g></g><g clip-rule="nonzero" clip-path="url(#9b103b4081)"><g clip-rule="nonzero" clip-path="url(#6658e81f18)"><g clip-rule="nonzero" clip-path="url(#5f983e1493)"><path style=" stroke:none;fill-rule:nonzero;fill:#ffffff;fill-opacity:1;" d="M 741.453125 107.984375 C 740.796875 110.222656 740.003906 112.363281 739.105469 114.378906 C 733.265625 127.464844 722.828125 135.476562 713.941406 132.859375 C 703.679688 129.835938 699.363281 113.800781 704.296875 97.042969 C 709.234375 80.28125 721.550781 69.144531 731.8125 72.167969 C 734.125 72.847656 736.132812 74.191406 737.804688 76.050781 C 743.546875 82.453125 745.277344 95 741.453125 107.984375 Z M 741.453125 107.984375 "/></g></g></g><g clip-rule="nonzero" clip-path="url(#af6aadd746)"><g clip-rule="nonzero" clip-path="url(#bba74d3677)"><g clip-rule="nonzero" clip-path="url(#73d8b98238)"><path style=" stroke:none;fill-rule:evenodd;fill:#203f9a;fill-opacity:1;" d="M 716.492188 77.664062 C 711.613281 82.074219 707.355469 88.9375 704.917969 97.222656 C 702.476562 105.507812 702.335938 113.585938 704.042969 119.933594 C 705.757812 126.292969 709.289062 130.816406 714.121094 132.238281 C 718.3125 133.472656 722.933594 132.222656 727.28125 128.988281 C 731.625 125.757812 735.628906 120.582031 738.515625 114.117188 C 739.402344 112.125 740.183594 110.011719 740.835938 107.800781 C 744.628906 94.925781 742.859375 82.648438 737.324219 76.480469 C 735.726562 74.699219 733.816406 73.429688 731.628906 72.785156 C 726.796875 71.363281 721.378906 73.246094 716.492188 77.664062 Z M 715.625 76.707031 C 720.695312 72.121094 726.566406 69.949219 731.996094 71.546875 C 734.433594 72.265625 736.546875 73.679688 738.285156 75.621094 C 744.242188 82.253906 745.929688 95.074219 742.074219 108.164062 C 741.40625 110.433594 740.605469 112.597656 739.695312 114.640625 C 736.738281 121.265625 732.609375 126.636719 728.050781 130.027344 C 723.5 133.414062 718.457031 134.859375 713.757812 133.476562 C 708.332031 131.878906 704.574219 126.871094 702.796875 120.269531 C 701.015625 113.65625 701.183594 105.332031 703.679688 96.859375 C 706.175781 88.382812 710.542969 81.300781 715.625 76.707031 Z M 715.625 76.707031 "/></g></g></g><g clip-rule="nonzero" clip-path="url(#66db091261)"><g clip-rule="nonzero" clip-path="url(#609c4a063b)"><g clip-rule="nonzero" clip-path="url(#6955bf1e8b)"><path style=" stroke:none;fill-rule:nonzero;fill:#203f9a;fill-opacity:1;" d="M 712.96875 99.59375 C 715.6875 90.359375 722.328125 84.179688 727.800781 85.792969 C 732.542969 87.1875 734.851562 93.972656 733.613281 101.765625 C 733.421875 102.96875 733.148438 104.195312 732.785156 105.429688 Z M 712.96875 99.59375 "/></g></g></g><g clip-rule="nonzero" clip-path="url(#39dae7eacf)"><g clip-rule="nonzero" clip-path="url(#783b21e65d)"><g clip-rule="nonzero" clip-path="url(#fc5edb5d15)"><path style=" stroke:none;fill-rule:nonzero;fill:#203f9a;fill-opacity:1;" d="M 717.953125 119.234375 C 712.480469 117.621094 710.246094 108.828125 712.96875 99.597656 L 732.785156 105.433594 C 732.421875 106.664062 731.988281 107.84375 731.496094 108.957031 C 728.3125 116.175781 722.691406 120.628906 717.953125 119.234375 Z M 717.953125 119.234375 "/></g></g></g><g clip-rule="nonzero" clip-path="url(#dd5e59a525)"><g clip-rule="nonzero" clip-path="url(#f128794aea)"><g clip-rule="nonzero" clip-path="url(#92d8bb0e05)"><path style=" stroke:none;fill-rule:nonzero;fill:#203f9a;fill-opacity:1;" d="M 674.570312 88.285156 C 677.289062 79.050781 683.929688 72.871094 689.402344 74.484375 C 694.144531 75.878906 696.453125 82.667969 695.21875 90.460938 C 695.027344 91.664062 694.753906 92.886719 694.390625 94.121094 Z M 674.570312 88.285156 "/></g></g></g><g clip-rule="nonzero" clip-path="url(#95cbd08b8c)"><g clip-rule="nonzero" clip-path="url(#19cd7bba62)"><g clip-rule="nonzero" clip-path="url(#05718d44ee)"><path style=" stroke:none;fill-rule:nonzero;fill:#203f9a;fill-opacity:1;" d="M 679.554688 107.925781 C 674.082031 106.316406 671.851562 97.523438 674.570312 88.289062 L 694.386719 94.125 C 694.023438 95.359375 693.589844 96.539062 693.101562 97.652344 C 689.914062 104.871094 684.296875 109.324219 679.554688 107.925781 Z M 679.554688 107.925781 "/></g></g></g><g clip-rule="nonzero" clip-path="url(#35951b522f)"><g clip-rule="nonzero" clip-path="url(#775fb89483)"><g clip-rule="nonzero" clip-path="url(#f52d5ac085)"><path style=" stroke:none;fill-rule:evenodd;fill:#203f9a;fill-opacity:1;" d="M 711.726562 55.175781 C 712.394531 56.011719 712.257812 57.230469 711.421875 57.898438 L 705.261719 62.816406 C 704.425781 63.480469 703.207031 63.34375 702.539062 62.507812 C 701.875 61.671875 702.011719 60.453125 702.847656 59.789062 L 709.003906 54.871094 C 709.839844 54.203125 711.058594 54.339844 711.726562 55.175781 Z M 718.824219 67.304688 C 719.09375 68.339844 718.472656 69.394531 717.4375 69.664062 L 710.148438 71.558594 C 709.113281 71.824219 708.054688 71.203125 707.789062 70.167969 C 707.519531 69.132812 708.140625 68.078125 709.175781 67.808594 L 716.460938 65.914062 C 717.496094 65.648438 718.554688 66.269531 718.824219 67.304688 Z M 718.824219 67.304688 "/></g></g></g><g clip-rule="nonzero" clip-path="url(#8ea79c4aa6)"><g clip-rule="nonzero" clip-path="url(#7a4963fe11)"><g clip-rule="nonzero" clip-path="url(#316ef46160)"><path style=" stroke:none;fill-rule:evenodd;fill:#203f9a;fill-opacity:1;" d="M 750.125 66.484375 C 750.789062 67.320312 750.652344 68.539062 749.816406 69.207031 L 743.660156 74.121094 C 742.824219 74.789062 741.605469 74.652344 740.9375 73.816406 C 740.269531 72.980469 740.40625 71.761719 741.242188 71.09375 L 747.402344 66.179688 C 748.238281 65.511719 749.457031 65.648438 750.125 66.484375 Z M 757.21875 78.609375 C 757.488281 79.644531 756.867188 80.703125 755.832031 80.972656 L 748.546875 82.863281 C 747.511719 83.132812 746.453125 82.511719 746.183594 81.476562 C 745.914062 80.441406 746.535156 79.382812 747.570312 79.113281 L 754.859375 77.222656 C 755.894531 76.953125 756.953125 77.574219 757.21875 78.609375 Z M 757.21875 78.609375 "/></g></g></g><g clip-rule="nonzero" clip-path="url(#0603630d29)"><g clip-rule="nonzero" clip-path="url(#a010097669)"><g clip-rule="nonzero" clip-path="url(#5b5d164eb6)"><path style=" stroke:none;fill-rule:evenodd;fill:#203f9a;fill-opacity:1;" d="M 676.734375 128.632812 C 673.316406 127.625 669.617188 129.613281 669.644531 133.179688 C 669.695312 140.269531 673.207031 146.929688 678.988281 150.984375 C 682.851562 144.605469 694.695312 134.558594 711.195312 145.414062 C 713.148438 142.433594 711.121094 138.757812 707.699219 137.75 Z M 676.734375 128.632812 "/></g></g></g><g clip-rule="nonzero" clip-path="url(#1353de4b77)"><g clip-rule="nonzero" clip-path="url(#8f812cc2f4)"><g clip-rule="nonzero" clip-path="url(#8b1444a0be)"><path style=" stroke:none;fill-rule:nonzero;fill:#ffffff;fill-opacity:1;" d="M 685.398438 154.066406 L 686.636719 154.429688 C 696.140625 157.230469 706.03125 153.296875 711.195312 145.414062 C 694.695312 134.558594 682.851562 144.605469 678.988281 150.984375 C 680.894531 152.320312 683.042969 153.371094 685.398438 154.066406 Z M 685.398438 154.066406 "/></g></g></g><g clip-rule="nonzero" clip-path="url(#1d3609ffd2)"><g clip-rule="nonzero" clip-path="url(#07afd03865)"><g clip-rule="nonzero" clip-path="url(#91bee970b2)"><path style=" stroke:none;fill-rule:evenodd;fill:#203f9a;fill-opacity:1;" d="M 678.992188 150.984375 C 678.8125 150.859375 678.640625 150.730469 678.464844 150.601562 C 672.996094 146.519531 669.695312 140.050781 669.644531 133.179688 C 669.617188 129.613281 673.316406 127.625 676.734375 128.632812 L 707.699219 137.75 C 710.910156 138.695312 712.894531 141.984375 711.515625 144.851562 C 711.425781 145.042969 711.316406 145.230469 711.195312 145.414062 C 711.183594 145.4375 711.167969 145.460938 711.152344 145.480469 C 711.046875 145.640625 710.941406 145.796875 710.835938 145.949219 C 705.578125 153.472656 695.925781 157.164062 686.636719 154.429688 L 685.398438 154.0625 C 683.042969 153.371094 680.894531 152.316406 678.992188 150.984375 Z M 677.101562 127.394531 L 708.066406 136.511719 C 710.109375 137.113281 711.769531 138.519531 712.625 140.277344 C 713.496094 142.058594 713.527344 144.210938 712.277344 146.121094 C 706.808594 154.464844 696.339844 158.632812 686.273438 155.667969 L 685.035156 155.304688 C 682.542969 154.570312 680.265625 153.453125 678.25 152.039062 C 672.125 147.746094 668.410156 140.695312 668.351562 133.1875 C 668.335938 130.90625 669.53125 129.113281 671.230469 128.085938 C 672.902344 127.074219 675.058594 126.789062 677.101562 127.394531 Z M 677.101562 127.394531 "/></g></g></g><path style=" stroke:none;fill-rule:nonzero;fill:#ffffff;fill-opacity:1;" d="M 138.023438 279.28125 C 138.023438 281.820312 137.855469 284.300781 137.535156 286.683594 C 135.460938 302.152344 127.023438 313.730469 116.929688 313.730469 C 107.0625 313.730469 98.78125 302.664062 96.476562 287.714844 C 96.058594 285.015625 95.839844 282.191406 95.839844 279.28125 C 95.839844 260.253906 105.28125 244.828125 116.929688 244.828125 C 119.554688 244.828125 122.070312 245.613281 124.386719 247.042969 C 132.355469 251.964844 138.023438 264.539062 138.023438 279.28125 Z M 138.023438 279.28125 "/><path style=" stroke:none;fill-rule:evenodd;fill:#203f9a;fill-opacity:1;" d="M 102.617188 255.285156 C 98.878906 261.390625 96.542969 269.871094 96.542969 279.277344 C 96.542969 281.890625 96.722656 284.433594 97.0625 286.878906 L 137.316406 278.703125 C 137.171875 264.339844 131.59375 252.316406 124.015625 247.640625 C 121.796875 246.269531 119.410156 245.53125 116.929688 245.53125 C 111.445312 245.53125 106.363281 249.167969 102.617188 255.285156 Z M 137.3125 280.136719 L 97.277344 288.269531 C 98.464844 295.371094 101.023438 301.507812 104.421875 305.894531 C 107.929688 310.417969 112.28125 313.023438 116.929688 313.023438 C 121.6875 313.023438 126.132812 310.296875 129.675781 305.582031 C 133.222656 300.871094 135.8125 294.226562 136.835938 286.589844 C 137.117188 284.503906 137.28125 282.347656 137.3125 280.136719 Z M 101.417969 254.550781 C 105.304688 248.199219 110.769531 244.125 116.929688 244.125 C 119.699219 244.125 122.339844 244.953125 124.757812 246.441406 C 133.015625 251.542969 138.726562 264.414062 138.726562 279.277344 C 138.726562 281.851562 138.554688 284.359375 138.230469 286.777344 C 137.179688 294.601562 134.519531 301.484375 130.800781 306.425781 C 127.085938 311.367188 122.265625 314.429688 116.929688 314.429688 C 111.714844 314.429688 106.992188 311.503906 103.3125 306.757812 C 99.632812 302.007812 96.949219 295.386719 95.78125 287.820312 C 95.359375 285.085938 95.136719 282.222656 95.136719 279.277344 C 95.136719 269.65625 97.523438 260.910156 101.417969 254.550781 Z M 101.417969 254.550781 "/><path style=" stroke:none;fill-rule:nonzero;fill:#ffffff;fill-opacity:1;" d="M 52.25 279.28125 C 52.25 281.820312 52.417969 284.300781 52.738281 286.683594 C 54.8125 302.152344 63.25 313.730469 73.339844 313.730469 C 83.207031 313.730469 91.492188 302.664062 93.796875 287.714844 C 94.210938 285.015625 94.433594 282.191406 94.433594 279.28125 C 94.433594 260.253906 84.988281 244.828125 73.339844 244.828125 C 70.714844 244.828125 68.203125 245.613281 65.886719 247.042969 C 57.917969 251.964844 52.25 264.539062 52.25 279.28125 Z M 52.25 279.28125 "/><path style=" stroke:none;fill-rule:evenodd;fill:#203f9a;fill-opacity:1;" d="M 87.65625 255.285156 C 91.394531 261.390625 93.730469 269.871094 93.730469 279.277344 C 93.730469 281.890625 93.550781 284.433594 93.207031 286.878906 L 52.957031 278.703125 C 53.101562 264.339844 58.679688 252.316406 66.253906 247.640625 C 68.476562 246.269531 70.863281 245.53125 73.339844 245.53125 C 78.828125 245.53125 83.910156 249.167969 87.65625 255.285156 Z M 52.960938 280.136719 L 92.996094 288.269531 C 91.804688 295.371094 89.25 301.507812 85.847656 305.894531 C 82.34375 310.417969 77.992188 313.023438 73.339844 313.023438 C 68.585938 313.023438 64.140625 310.296875 60.59375 305.582031 C 57.050781 300.871094 54.460938 294.226562 53.433594 286.589844 C 53.15625 284.503906 52.992188 282.347656 52.960938 280.136719 Z M 88.855469 254.550781 C 84.96875 248.199219 79.503906 244.125 73.339844 244.125 C 70.570312 244.125 67.933594 244.953125 65.515625 246.441406 C 57.253906 251.542969 51.546875 264.414062 51.546875 279.277344 C 51.546875 281.851562 51.71875 284.359375 52.042969 286.777344 C 53.089844 294.601562 55.753906 301.484375 59.472656 306.425781 C 63.1875 311.367188 68.003906 314.429688 73.339844 314.429688 C 78.558594 314.429688 83.28125 311.503906 86.960938 306.757812 C 90.640625 302.007812 93.324219 295.386719 94.492188 287.820312 C 94.914062 285.085938 95.136719 282.222656 95.136719 279.277344 C 95.136719 269.65625 92.75 260.910156 88.855469 254.550781 Z M 88.855469 254.550781 "/><path style=" stroke:none;fill-rule:evenodd;fill:#203f9a;fill-opacity:1;" d="M 103.523438 286.285156 C 105.320312 295.671875 110.644531 302.476562 116.929688 302.476562 C 123.660156 302.476562 129.285156 294.683594 130.667969 284.265625 C 130.820312 283.109375 130.921875 281.921875 130.964844 280.710938 Z M 103.523438 286.285156 "/><path style=" stroke:none;fill-rule:evenodd;fill:#203f9a;fill-opacity:1;" d="M 86.75 286.285156 C 84.949219 295.671875 79.628906 302.476562 73.339844 302.476562 C 66.613281 302.476562 60.988281 294.683594 59.605469 284.265625 C 59.453125 283.109375 59.351562 281.921875 59.304688 280.710938 Z M 86.75 286.285156 "/><g clip-rule="nonzero" clip-path="url(#3256db58de)"><path style=" stroke:none;fill-rule:evenodd;fill:#203f9a;fill-opacity:1;" d="M 55.960938 233.257812 C 55.007812 233.925781 54.773438 235.242188 55.441406 236.195312 L 60.363281 243.226562 C 61.03125 244.179688 62.347656 244.414062 63.300781 243.746094 C 64.257812 243.078125 64.488281 241.761719 63.820312 240.808594 L 58.898438 233.777344 C 58.230469 232.820312 56.914062 232.589844 55.960938 233.257812 Z M 44.816406 243.742188 C 44.21875 244.742188 44.542969 246.039062 45.539062 246.636719 L 52.570312 250.855469 C 53.570312 251.453125 54.863281 251.132812 55.464844 250.132812 C 56.0625 249.132812 55.738281 247.835938 54.742188 247.238281 L 47.710938 243.019531 C 46.710938 242.421875 45.414062 242.746094 44.816406 243.742188 Z M 44.816406 243.742188 "/></g><g clip-rule="nonzero" clip-path="url(#b5b900c014)"><path style=" stroke:none;fill-rule:evenodd;fill:#203f9a;fill-opacity:1;" d="M 135.714844 233.257812 C 136.671875 233.925781 136.902344 235.242188 136.234375 236.195312 L 131.3125 243.226562 C 130.644531 244.179688 129.332031 244.414062 128.375 243.746094 C 127.421875 243.078125 127.191406 241.761719 127.859375 240.808594 L 132.777344 233.777344 C 133.449219 232.820312 134.761719 232.589844 135.714844 233.257812 Z M 146.863281 243.742188 C 147.460938 244.742188 147.136719 246.039062 146.136719 246.636719 L 139.109375 250.855469 C 138.109375 251.453125 136.8125 251.132812 136.214844 250.132812 C 135.613281 249.132812 135.9375 247.835938 136.9375 247.238281 L 143.96875 243.019531 C 144.964844 242.421875 146.261719 242.746094 146.863281 243.742188 Z M 146.863281 243.742188 "/></g><path style=" stroke:none;fill-rule:evenodd;fill:#203f9a;fill-opacity:1;" d="M 84.132812 326.871094 C 84.675781 325.839844 85.953125 325.449219 86.980469 325.992188 C 94.507812 329.964844 103.753906 325.753906 105.699219 317.46875 C 105.964844 316.335938 107.101562 315.632812 108.234375 315.898438 C 109.367188 316.164062 110.074219 317.300781 109.804688 318.433594 C 107.230469 329.40625 94.980469 334.984375 85.011719 329.722656 C 83.980469 329.175781 83.589844 327.902344 84.132812 326.871094 Z M 84.132812 326.871094 "/><g clip-rule="nonzero" clip-path="url(#4ab677c6f0)"><path style=" stroke:none;fill-rule:nonzero;fill:#93c3da;fill-opacity:1;" d="M 671.191406 263.449219 C 670.832031 265.03125 670.265625 272.449219 670.03125 275.960938 C 666.3125 278.101562 658.589844 282.394531 657.832031 283.015625 C 656.199219 284.363281 657.085938 286.675781 658.878906 286.675781 L 671.921875 286.675781 C 672.480469 291.09375 675.046875 300.234375 675.304688 301.277344 C 675.703125 302.878906 678.113281 303.175781 678.785156 301.277344 C 679.230469 300.019531 681.828125 292.4375 682.976562 288.765625 C 687.863281 289.886719 698.039062 292.113281 699.625 292.054688 C 701.609375 291.980469 701.71875 289.738281 700.785156 288.765625 C 700.035156 287.992188 693.664062 283.265625 690.570312 281 C 692.777344 277.640625 697.28125 270.664062 697.640625 269.648438 C 698.089844 268.378906 696.484375 267.257812 694.796875 267.558594 C 693.453125 267.796875 685.882812 271.09375 682.265625 272.710938 C 680.292969 270.359375 676.703125 265.503906 675.304688 263.449219 C 673.933594 261.433594 671.640625 261.46875 671.191406 263.449219 Z M 671.191406 263.449219 "/><path style=" stroke:none;fill-rule:evenodd;fill:#203f9a;fill-opacity:1;" d="M 671.945312 262.46875 C 671.679688 262.691406 671.46875 263.027344 671.363281 263.488281 C 671.1875 264.265625 670.957031 266.5 670.742188 268.996094 C 670.527344 271.488281 670.328125 274.214844 670.207031 275.972656 C 670.203125 276.03125 670.171875 276.085938 670.121094 276.113281 C 669.007812 276.753906 667.539062 277.585938 666.007812 278.453125 C 664.972656 279.039062 663.910156 279.640625 662.910156 280.210938 C 661.664062 280.921875 660.511719 281.582031 659.625 282.105469 C 659.179688 282.367188 658.804688 282.59375 658.515625 282.773438 C 658.222656 282.957031 658.03125 283.085938 657.945312 283.15625 C 656.425781 284.410156 657.273438 286.496094 658.878906 286.496094 L 671.921875 286.496094 C 672.011719 286.496094 672.085938 286.5625 672.097656 286.652344 C 672.570312 290.382812 674.476562 297.488281 675.210938 300.222656 C 675.34375 300.71875 675.4375 301.070312 675.480469 301.234375 C 675.835938 302.667969 678.003906 302.945312 678.617188 301.21875 C 679.0625 299.957031 681.660156 292.382812 682.804688 288.714844 C 682.832031 288.625 682.925781 288.570312 683.015625 288.59375 C 685.460938 289.152344 689.222656 289.988281 692.574219 290.675781 C 694.25 291.023438 695.820312 291.328125 697.074219 291.546875 C 697.699219 291.65625 698.242188 291.742188 698.679688 291.796875 C 699.117188 291.855469 699.4375 291.882812 699.617188 291.875 C 700.078125 291.855469 700.417969 291.714844 700.65625 291.507812 C 700.898438 291.300781 701.054688 291.019531 701.125 290.707031 C 701.273438 290.070312 701.078125 289.332031 700.65625 288.890625 C 700.480469 288.707031 699.953125 288.277344 699.199219 287.683594 C 698.449219 287.097656 697.484375 286.367188 696.449219 285.585938 C 694.378906 284.023438 692.011719 282.277344 690.464844 281.144531 C 690.386719 281.089844 690.367188 280.980469 690.421875 280.902344 C 691.523438 279.222656 693.203125 276.640625 694.648438 274.347656 C 695.371094 273.203125 696.035156 272.132812 696.542969 271.285156 C 696.796875 270.863281 697.007812 270.496094 697.167969 270.203125 C 697.332031 269.90625 697.433594 269.699219 697.472656 269.589844 C 697.664062 269.050781 697.429688 268.53125 696.914062 268.160156 C 696.402344 267.789062 695.625 267.59375 694.828125 267.734375 C 694.515625 267.789062 693.804688 268.03125 692.84375 268.402344 C 691.890625 268.769531 690.707031 269.253906 689.453125 269.78125 C 686.941406 270.835938 684.144531 272.066406 682.335938 272.875 C 682.265625 272.90625 682.179688 272.886719 682.128906 272.824219 C 680.152344 270.46875 676.554688 265.609375 675.15625 263.550781 C 674.496094 262.578125 673.628906 262.125 672.902344 262.128906 C 672.539062 262.132812 672.210938 262.246094 671.945312 262.46875 Z M 672.902344 261.773438 C 673.777344 261.765625 674.742188 262.304688 675.453125 263.347656 C 676.828125 265.371094 680.332031 270.109375 682.316406 272.492188 C 684.125 271.683594 686.855469 270.484375 689.3125 269.453125 C 690.570312 268.921875 691.757812 268.4375 692.714844 268.070312 C 693.667969 267.703125 694.410156 267.445312 694.765625 267.382812 C 695.65625 267.222656 696.527344 267.4375 697.125 267.871094 C 697.722656 268.300781 698.070312 268.976562 697.8125 269.707031 C 697.761719 269.851562 697.644531 270.082031 697.484375 270.375 C 697.320312 270.671875 697.105469 271.042969 696.851562 271.46875 C 696.339844 272.320312 695.675781 273.394531 694.949219 274.539062 C 693.542969 276.769531 691.917969 279.273438 690.8125 280.957031 C 692.359375 282.089844 694.652344 283.78125 696.664062 285.300781 C 697.703125 286.082031 698.667969 286.816406 699.417969 287.402344 C 700.164062 287.988281 700.714844 288.4375 700.914062 288.644531 C 701.425781 289.175781 701.644531 290.042969 701.472656 290.785156 C 701.386719 291.164062 701.199219 291.515625 700.890625 291.78125 C 700.582031 292.046875 700.164062 292.210938 699.632812 292.230469 C 699.417969 292.242188 699.070312 292.210938 698.632812 292.152344 C 698.1875 292.09375 697.640625 292.007812 697.011719 291.898438 C 695.753906 291.679688 694.179688 291.371094 692.503906 291.027344 C 689.222656 290.355469 685.542969 289.539062 683.097656 288.980469 C 681.925781 292.707031 679.394531 300.09375 678.953125 301.335938 C 678.222656 303.402344 675.574219 303.09375 675.132812 301.320312 C 675.09375 301.164062 675 300.820312 674.871094 300.335938 C 674.152344 297.660156 672.273438 290.65625 671.765625 286.855469 L 658.878906 286.855469 C 656.894531 286.855469 655.972656 284.320312 657.71875 282.878906 C 657.824219 282.792969 658.039062 282.652344 658.328125 282.46875 C 658.621094 282.289062 659 282.058594 659.445312 281.796875 C 660.332031 281.273438 661.488281 280.609375 662.730469 279.902344 C 663.738281 279.328125 664.800781 278.726562 665.832031 278.140625 C 667.328125 277.296875 668.757812 276.484375 669.859375 275.851562 C 669.976562 274.09375 670.175781 271.414062 670.386719 268.964844 C 670.601562 266.480469 670.832031 264.214844 671.015625 263.410156 C 671.136719 262.882812 671.378906 262.472656 671.714844 262.195312 C 672.046875 261.914062 672.460938 261.773438 672.902344 261.773438 Z M 672.902344 261.773438 "/></g><g clip-rule="nonzero" clip-path="url(#9375c2db37)"><path style=" stroke:none;fill-rule:nonzero;fill:#93c3da;fill-opacity:1;" d="M 720.78125 241.449219 C 720.601562 242.238281 720.320312 245.945312 720.199219 247.703125 C 718.34375 248.773438 714.480469 250.917969 714.101562 251.230469 C 713.285156 251.90625 713.726562 253.0625 714.625 253.0625 L 721.148438 253.0625 C 721.425781 255.269531 722.707031 259.839844 722.839844 260.359375 C 723.039062 261.164062 724.242188 261.308594 724.578125 260.359375 C 724.800781 259.730469 726.101562 255.941406 726.675781 254.105469 C 729.117188 254.667969 734.207031 255.78125 735 255.75 C 735.988281 255.710938 736.046875 254.59375 735.578125 254.105469 C 735.203125 253.71875 732.019531 251.355469 730.472656 250.222656 C 731.574219 248.542969 733.828125 245.054688 734.007812 244.546875 C 734.230469 243.910156 733.425781 243.351562 732.585938 243.5 C 731.910156 243.621094 728.125 245.269531 726.320312 246.078125 C 725.332031 244.902344 723.535156 242.476562 722.839844 241.449219 C 722.152344 240.4375 721.003906 240.457031 720.78125 241.449219 Z M 720.78125 241.449219 "/><path style=" stroke:none;fill-rule:evenodd;fill:#203f9a;fill-opacity:1;" d="M 721.15625 240.957031 C 721.023438 241.066406 720.921875 241.234375 720.867188 241.46875 C 720.78125 241.855469 720.664062 242.972656 720.558594 244.222656 C 720.449219 245.464844 720.347656 246.832031 720.289062 247.707031 C 720.289062 247.738281 720.273438 247.765625 720.246094 247.78125 C 719.691406 248.097656 718.957031 248.515625 718.191406 248.949219 C 717.671875 249.242188 717.140625 249.542969 716.640625 249.828125 C 716.019531 250.183594 715.441406 250.515625 715 250.777344 C 714.777344 250.90625 714.589844 251.019531 714.445312 251.109375 C 714.296875 251.199219 714.199219 251.265625 714.160156 251.300781 C 713.398438 251.925781 713.824219 252.972656 714.625 252.972656 L 721.148438 252.972656 C 721.191406 252.972656 721.230469 253.003906 721.234375 253.050781 C 721.472656 254.914062 722.425781 258.464844 722.792969 259.835938 C 722.859375 260.082031 722.90625 260.257812 722.925781 260.339844 C 723.105469 261.054688 724.1875 261.195312 724.496094 260.332031 C 724.71875 259.703125 726.015625 255.914062 726.589844 254.078125 C 726.601562 254.035156 726.648438 254.007812 726.695312 254.019531 C 727.914062 254.300781 729.796875 254.71875 731.472656 255.0625 C 732.3125 255.234375 733.097656 255.386719 733.722656 255.496094 C 734.035156 255.550781 734.308594 255.59375 734.523438 255.621094 C 734.746094 255.652344 734.90625 255.664062 734.996094 255.660156 C 735.226562 255.652344 735.394531 255.582031 735.515625 255.476562 C 735.636719 255.375 735.710938 255.234375 735.75 255.074219 C 735.820312 254.757812 735.726562 254.386719 735.515625 254.167969 C 735.425781 254.078125 735.164062 253.859375 734.785156 253.566406 C 734.410156 253.273438 733.929688 252.90625 733.410156 252.515625 C 732.375 251.734375 731.191406 250.859375 730.417969 250.296875 C 730.378906 250.265625 730.371094 250.214844 730.398438 250.171875 C 730.949219 249.332031 731.785156 248.042969 732.511719 246.898438 C 732.871094 246.324219 733.203125 245.789062 733.457031 245.367188 C 733.585938 245.152344 733.691406 244.96875 733.769531 244.824219 C 733.851562 244.675781 733.902344 244.574219 733.921875 244.515625 C 734.019531 244.25 733.902344 243.988281 733.644531 243.800781 C 733.386719 243.617188 733 243.519531 732.601562 243.589844 C 732.441406 243.617188 732.089844 243.738281 731.609375 243.925781 C 731.132812 244.109375 730.539062 244.351562 729.914062 244.613281 C 728.65625 245.140625 727.257812 245.753906 726.355469 246.160156 C 726.320312 246.175781 726.277344 246.167969 726.25 246.136719 C 725.261719 244.957031 723.464844 242.527344 722.765625 241.496094 C 722.433594 241.011719 722 240.785156 721.636719 240.789062 C 721.457031 240.789062 721.289062 240.847656 721.15625 240.957031 Z M 721.636719 240.609375 C 722.074219 240.605469 722.558594 240.875 722.914062 241.398438 C 723.597656 242.40625 725.351562 244.777344 726.34375 245.96875 C 727.25 245.5625 728.613281 244.964844 729.84375 244.449219 C 730.472656 244.183594 731.066406 243.941406 731.542969 243.757812 C 732.019531 243.574219 732.390625 243.445312 732.570312 243.414062 C 733.011719 243.335938 733.449219 243.441406 733.75 243.65625 C 734.046875 243.875 734.222656 244.210938 734.089844 244.578125 C 734.066406 244.648438 734.007812 244.765625 733.925781 244.910156 C 733.847656 245.058594 733.738281 245.246094 733.609375 245.457031 C 733.355469 245.882812 733.023438 246.421875 732.660156 246.992188 C 731.957031 248.105469 731.144531 249.359375 730.59375 250.199219 C 731.367188 250.769531 732.511719 251.613281 733.519531 252.371094 C 734.035156 252.761719 734.519531 253.128906 734.894531 253.425781 C 735.269531 253.714844 735.542969 253.941406 735.644531 254.042969 C 735.898438 254.308594 736.007812 254.742188 735.921875 255.117188 C 735.878906 255.304688 735.785156 255.480469 735.632812 255.613281 C 735.476562 255.746094 735.265625 255.828125 735.003906 255.839844 C 734.894531 255.84375 734.722656 255.828125 734.503906 255.800781 C 734.28125 255.769531 734.003906 255.726562 733.691406 255.671875 C 733.0625 255.5625 732.277344 255.410156 731.4375 255.238281 C 729.796875 254.898438 727.957031 254.492188 726.734375 254.210938 C 726.148438 256.078125 724.882812 259.769531 724.664062 260.390625 C 724.296875 261.425781 722.972656 261.269531 722.75 260.382812 C 722.734375 260.304688 722.6875 260.132812 722.621094 259.890625 C 722.261719 258.550781 721.324219 255.050781 721.066406 253.152344 L 714.625 253.152344 C 713.632812 253.152344 713.171875 251.882812 714.046875 251.160156 C 714.097656 251.117188 714.203125 251.046875 714.347656 250.957031 C 714.496094 250.867188 714.683594 250.753906 714.90625 250.621094 C 715.351562 250.359375 715.929688 250.027344 716.550781 249.671875 C 717.054688 249.386719 717.585938 249.085938 718.101562 248.792969 C 718.851562 248.371094 719.566406 247.964844 720.113281 247.648438 C 720.175781 246.769531 720.273438 245.429688 720.378906 244.207031 C 720.488281 242.964844 720.601562 241.832031 720.695312 241.425781 C 720.753906 241.164062 720.875 240.960938 721.042969 240.820312 C 721.210938 240.679688 721.417969 240.609375 721.636719 240.609375 Z M 721.636719 240.609375 "/></g><g clip-rule="nonzero" clip-path="url(#87ddc9e2ec)"><path style=" stroke:none;fill-rule:evenodd;fill:#0c1a43;fill-opacity:1;" d="M 95.820312 28.78125 L 26.15625 28.78125 L 26.15625 30.195312 L 95.820312 30.195312 Z M 95.820312 28.78125 "/></g><g clip-rule="nonzero" clip-path="url(#34e5c9d8aa)"><path style=" stroke:none;fill-rule:nonzero;fill:#0c1a43;fill-opacity:1;" d="M 20.851562 16.050781 L 18.5625 27.199219 L 7.414062 29.488281 L 18.5625 31.78125 L 20.851562 42.925781 L 23.144531 31.78125 L 34.292969 29.488281 L 23.144531 27.199219 Z M 20.851562 16.050781 "/></g><g clip-rule="nonzero" clip-path="url(#7e972fce78)"><path style=" stroke:none;fill-rule:nonzero;fill:#0c1a43;fill-opacity:1;" d="M 732.402344 386.226562 C 734.75 397.65625 743.679688 406.585938 755.105469 408.929688 C 743.679688 411.277344 734.75 420.207031 732.402344 431.636719 C 730.054688 420.207031 721.125 411.277344 709.699219 408.929688 C 721.125 406.585938 730.054688 397.65625 732.402344 386.226562 Z M 732.402344 386.226562 "/></g><g clip-rule="nonzero" clip-path="url(#4221c39242)"><path style=" stroke:none;fill-rule:nonzero;fill:#0c1a43;fill-opacity:1;" d="M 781.886719 405.0625 L 778.015625 386.226562 L 774.148438 405.0625 L 755.3125 408.929688 L 774.148438 412.800781 L 778.015625 431.636719 L 781.886719 412.800781 L 800.722656 408.929688 Z M 781.886719 405.0625 "/></g><g clip-rule="nonzero" clip-path="url(#dfe2d7f06c)"><g clip-rule="nonzero" clip-path="url(#dabf451c6e)"><g clip-rule="nonzero" clip-path="url(#066398bcc2)"><path style=" stroke:none;fill-rule:evenodd;fill:#f50d83;fill-opacity:1;" d="M 387.101562 118.515625 L 406.1875 131.382812 L 423.726562 116.472656 L 442.8125 129.34375 L 460.351562 114.433594 L 479.441406 127.300781 L 496.980469 112.390625 L 516.066406 125.261719 L 533.605469 110.351562 L 551.597656 122.480469 L 551.84375 126.878906 L 533.851562 114.746094 L 516.3125 129.65625 L 497.222656 116.789062 L 479.683594 131.695312 L 460.597656 118.828125 L 443.058594 133.738281 L 423.972656 120.871094 L 406.433594 135.777344 L 387.34375 122.910156 L 370.8125 136.964844 L 370.566406 132.570312 Z M 387.101562 118.515625 "/></g></g></g><g clip-rule="nonzero" clip-path="url(#a61ef1524c)"><path style=" stroke:none;fill-rule:nonzero;fill:#203f9a;fill-opacity:1;" d="M 18.777344 386.367188 C 19.371094 386.367188 19.855469 385.886719 19.855469 385.292969 C 19.855469 384.695312 19.371094 384.214844 18.777344 384.214844 C 18.183594 384.214844 17.703125 384.695312 17.703125 385.292969 C 17.703125 385.886719 18.183594 386.367188 18.777344 386.367188 Z M 18.777344 386.367188 "/></g><g clip-rule="nonzero" clip-path="url(#e03d820b88)"><path style=" stroke:none;fill-rule:nonzero;fill:#203f9a;fill-opacity:1;" d="M 30.496094 386.367188 C 31.089844 386.367188 31.570312 385.886719 31.570312 385.292969 C 31.570312 384.695312 31.089844 384.214844 30.496094 384.214844 C 29.902344 384.214844 29.417969 384.695312 29.417969 385.292969 C 29.417969 385.886719 29.902344 386.367188 30.496094 386.367188 Z M 30.496094 386.367188 "/></g><g clip-rule="nonzero" clip-path="url(#97b8b6aa7c)"><path style=" stroke:none;fill-rule:nonzero;fill:#203f9a;fill-opacity:1;" d="M 43.289062 385.292969 C 43.289062 385.886719 42.808594 386.367188 42.210938 386.367188 C 41.617188 386.367188 41.136719 385.886719 41.136719 385.292969 C 41.136719 384.695312 41.617188 384.214844 42.210938 384.214844 C 42.808594 384.214844 43.289062 384.695312 43.289062 385.292969 Z M 43.289062 385.292969 "/></g><g clip-rule="nonzero" clip-path="url(#e9a87ab649)"><path style=" stroke:none;fill-rule:nonzero;fill:#203f9a;fill-opacity:1;" d="M 53.929688 386.367188 C 54.523438 386.367188 55.007812 385.886719 55.007812 385.292969 C 55.007812 384.695312 54.523438 384.214844 53.929688 384.214844 C 53.335938 384.214844 52.855469 384.695312 52.855469 385.292969 C 52.855469 385.886719 53.335938 386.367188 53.929688 386.367188 Z M 53.929688 386.367188 "/></g><g clip-rule="nonzero" clip-path="url(#f7f5347c13)"><path style=" stroke:none;fill-rule:nonzero;fill:#203f9a;fill-opacity:1;" d="M 19.855469 397.128906 C 19.855469 397.722656 19.371094 398.203125 18.777344 398.203125 C 18.183594 398.203125 17.703125 397.722656 17.703125 397.128906 C 17.703125 396.535156 18.183594 396.050781 18.777344 396.050781 C 19.371094 396.050781 19.855469 396.535156 19.855469 397.128906 Z M 19.855469 397.128906 "/></g><path style=" stroke:none;fill-rule:nonzero;fill:#203f9a;fill-opacity:1;" d="M 30.496094 398.203125 C 31.089844 398.203125 31.570312 397.722656 31.570312 397.128906 C 31.570312 396.535156 31.089844 396.050781 30.496094 396.050781 C 29.902344 396.050781 29.417969 396.535156 29.417969 397.128906 C 29.417969 397.722656 29.902344 398.203125 30.496094 398.203125 Z M 30.496094 398.203125 "/><path style=" stroke:none;fill-rule:nonzero;fill:#203f9a;fill-opacity:1;" d="M 43.289062 397.128906 C 43.289062 397.722656 42.808594 398.203125 42.210938 398.203125 C 41.617188 398.203125 41.136719 397.722656 41.136719 397.128906 C 41.136719 396.535156 41.617188 396.050781 42.210938 396.050781 C 42.808594 396.050781 43.289062 396.535156 43.289062 397.128906 Z M 43.289062 397.128906 "/><g clip-rule="nonzero" clip-path="url(#a32b74d2e7)"><path style=" stroke:none;fill-rule:nonzero;fill:#203f9a;fill-opacity:1;" d="M 53.929688 398.203125 C 54.523438 398.203125 55.007812 397.722656 55.007812 397.128906 C 55.007812 396.535156 54.523438 396.050781 53.929688 396.050781 C 53.335938 396.050781 52.855469 396.535156 52.855469 397.128906 C 52.855469 397.722656 53.335938 398.203125 53.929688 398.203125 Z M 53.929688 398.203125 "/></g><g clip-rule="nonzero" clip-path="url(#978fd5fb94)"><path style=" stroke:none;fill-rule:nonzero;fill:#203f9a;fill-opacity:1;" d="M 19.855469 408.964844 C 19.855469 409.558594 19.371094 410.039062 18.777344 410.039062 C 18.183594 410.039062 17.703125 409.558594 17.703125 408.964844 C 17.703125 408.371094 18.183594 407.886719 18.777344 407.886719 C 19.371094 407.886719 19.855469 408.371094 19.855469 408.964844 Z M 19.855469 408.964844 "/></g><path style=" stroke:none;fill-rule:nonzero;fill:#203f9a;fill-opacity:1;" d="M 30.496094 410.039062 C 31.089844 410.039062 31.570312 409.558594 31.570312 408.964844 C 31.570312 408.371094 31.089844 407.886719 30.496094 407.886719 C 29.902344 407.886719 29.417969 408.371094 29.417969 408.964844 C 29.417969 409.558594 29.902344 410.039062 30.496094 410.039062 Z M 30.496094 410.039062 "/><path style=" stroke:none;fill-rule:nonzero;fill:#203f9a;fill-opacity:1;" d="M 43.289062 408.964844 C 43.289062 409.558594 42.808594 410.039062 42.210938 410.039062 C 41.617188 410.039062 41.136719 409.558594 41.136719 408.964844 C 41.136719 408.371094 41.617188 407.886719 42.210938 407.886719 C 42.808594 407.886719 43.289062 408.371094 43.289062 408.964844 Z M 43.289062 408.964844 "/><g clip-rule="nonzero" clip-path="url(#4a685d350e)"><path style=" stroke:none;fill-rule:nonzero;fill:#203f9a;fill-opacity:1;" d="M 53.929688 410.039062 C 54.523438 410.039062 55.007812 409.558594 55.007812 408.964844 C 55.007812 408.371094 54.523438 407.886719 53.929688 407.886719 C 53.335938 407.886719 52.855469 408.371094 52.855469 408.964844 C 52.855469 409.558594 53.335938 410.039062 53.929688 410.039062 Z M 53.929688 410.039062 "/></g><g clip-rule="nonzero" clip-path="url(#24388313c2)"><path style=" stroke:none;fill-rule:nonzero;fill:#203f9a;fill-opacity:1;" d="M 19.855469 420.804688 C 19.855469 421.398438 19.371094 421.878906 18.777344 421.878906 C 18.183594 421.878906 17.703125 421.398438 17.703125 420.804688 C 17.703125 420.207031 18.183594 419.726562 18.777344 419.726562 C 19.371094 419.726562 19.855469 420.207031 19.855469 420.804688 Z M 19.855469 420.804688 "/></g><path style=" stroke:none;fill-rule:nonzero;fill:#203f9a;fill-opacity:1;" d="M 30.496094 421.878906 C 31.089844 421.878906 31.570312 421.398438 31.570312 420.804688 C 31.570312 420.207031 31.089844 419.726562 30.496094 419.726562 C 29.902344 419.726562 29.417969 420.207031 29.417969 420.804688 C 29.417969 421.398438 29.902344 421.878906 30.496094 421.878906 Z M 30.496094 421.878906 "/><path style=" stroke:none;fill-rule:nonzero;fill:#203f9a;fill-opacity:1;" d="M 43.289062 420.804688 C 43.289062 421.398438 42.808594 421.878906 42.210938 421.878906 C 41.617188 421.878906 41.136719 421.398438 41.136719 420.804688 C 41.136719 420.207031 41.617188 419.726562 42.210938 419.726562 C 42.808594 419.726562 43.289062 420.207031 43.289062 420.804688 Z M 43.289062 420.804688 "/><g clip-rule="nonzero" clip-path="url(#9e608f1302)"><path style=" stroke:none;fill-rule:nonzero;fill:#203f9a;fill-opacity:1;" d="M 53.929688 421.878906 C 54.523438 421.878906 55.007812 421.398438 55.007812 420.804688 C 55.007812 420.207031 54.523438 419.726562 53.929688 419.726562 C 53.335938 419.726562 52.855469 420.207031 52.855469 420.804688 C 52.855469 421.398438 53.335938 421.878906 53.929688 421.878906 Z M 53.929688 421.878906 "/></g><g clip-rule="nonzero" clip-path="url(#a2990c210f)"><path style=" stroke:none;fill-rule:nonzero;fill:#203f9a;fill-opacity:1;" d="M 19.855469 432.640625 C 19.855469 433.234375 19.371094 433.714844 18.777344 433.714844 C 18.183594 433.714844 17.703125 433.234375 17.703125 432.640625 C 17.703125 432.046875 18.183594 431.5625 18.777344 431.5625 C 19.371094 431.5625 19.855469 432.046875 19.855469 432.640625 Z M 19.855469 432.640625 "/></g><g clip-rule="nonzero" clip-path="url(#3af11af13e)"><path style=" stroke:none;fill-rule:nonzero;fill:#203f9a;fill-opacity:1;" d="M 30.496094 433.714844 C 31.089844 433.714844 31.570312 433.234375 31.570312 432.640625 C 31.570312 432.046875 31.089844 431.5625 30.496094 431.5625 C 29.902344 431.5625 29.417969 432.046875 29.417969 432.640625 C 29.417969 433.234375 29.902344 433.714844 30.496094 433.714844 Z M 30.496094 433.714844 "/></g><g clip-rule="nonzero" clip-path="url(#eb639b37d3)"><path style=" stroke:none;fill-rule:nonzero;fill:#203f9a;fill-opacity:1;" d="M 43.289062 432.640625 C 43.289062 433.234375 42.808594 433.714844 42.210938 433.714844 C 41.617188 433.714844 41.136719 433.234375 41.136719 432.640625 C 41.136719 432.046875 41.617188 431.5625 42.210938 431.5625 C 42.808594 431.5625 43.289062 432.046875 43.289062 432.640625 Z M 43.289062 432.640625 "/></g><g clip-rule="nonzero" clip-path="url(#23cd801eeb)"><path style=" stroke:none;fill-rule:nonzero;fill:#203f9a;fill-opacity:1;" d="M 53.929688 433.714844 C 54.523438 433.714844 55.007812 433.234375 55.007812 432.640625 C 55.007812 432.046875 54.523438 431.5625 53.929688 431.5625 C 53.335938 431.5625 52.855469 432.046875 52.855469 432.640625 C 52.855469 433.234375 53.335938 433.714844 53.929688 433.714844 Z M 53.929688 433.714844 "/></g><g clip-rule="nonzero" clip-path="url(#91e1567e9b)"><g clip-rule="nonzero" clip-path="url(#3ee860c9c7)"><g clip-rule="nonzero" clip-path="url(#a6e6a2d109)"><path style=" stroke:none;fill-rule:nonzero;fill:#0c1a43;fill-opacity:1;" d="M 210.445312 113.457031 L 214.613281 131.242188 L 232.601562 134.421875 L 214.816406 138.589844 L 211.636719 156.578125 L 207.46875 138.792969 L 189.480469 135.617188 L 207.265625 131.445312 Z M 210.445312 113.457031 "/></g></g></g><g clip-rule="nonzero" clip-path="url(#788af19bc9)"><g clip-rule="nonzero" clip-path="url(#500f46fe7e)"><g clip-rule="nonzero" clip-path="url(#1240795251)"><path style=" stroke:none;fill-rule:evenodd;fill:#0c1a43;fill-opacity:1;" d="M 209.464844 157.179688 C 210.621094 154.6875 210.53125 153.210938 210.039062 152.410156 C 209.546875 151.609375 208.265625 150.859375 205.523438 150.769531 C 202.863281 150.679688 199.296875 151.238281 195.027344 152.457031 C 186.511719 154.890625 175.605469 159.835938 164.363281 166.746094 C 153.121094 173.660156 143.785156 181.160156 137.773438 187.660156 C 134.757812 190.917969 132.648438 193.851562 131.527344 196.265625 C 130.371094 198.753906 130.460938 200.234375 130.953125 201.035156 C 131.445312 201.835938 132.726562 202.585938 135.46875 202.675781 C 138.128906 202.765625 141.695312 202.207031 145.964844 200.988281 C 154.480469 198.554688 165.386719 193.609375 176.628906 186.699219 C 187.871094 179.785156 197.207031 172.285156 203.21875 165.785156 C 206.234375 162.527344 208.34375 159.59375 209.464844 157.179688 Z M 177.566406 188.21875 C 200.246094 174.277344 215.464844 157.824219 211.5625 151.472656 C 207.65625 145.121094 186.105469 151.28125 163.425781 165.222656 C 140.746094 179.167969 125.527344 195.621094 129.429688 201.972656 C 133.335938 208.320312 154.886719 202.164062 177.566406 188.21875 Z M 177.566406 188.21875 "/></g></g></g><g clip-rule="nonzero" clip-path="url(#18de6c98fe)"><g clip-rule="nonzero" clip-path="url(#a23e95896f)"><g clip-rule="nonzero" clip-path="url(#ad73cf3333)"><path style=" stroke:none;fill-rule:nonzero;fill:#0c1a43;fill-opacity:1;" d="M 131.316406 174.898438 L 133.132812 182.640625 L 140.960938 184.023438 L 133.222656 185.835938 L 131.835938 193.667969 L 130.023438 185.925781 L 122.195312 184.542969 L 129.933594 182.726562 Z M 131.316406 174.898438 "/></g></g></g><g clip-rule="nonzero" clip-path="url(#0f4f777e81)"><path style=" stroke:none;fill-rule:nonzero;fill:#203f9a;fill-opacity:1;" d="M 775.144531 1.472656 C 775.144531 2.355469 774.429688 3.070312 773.546875 3.070312 C 772.664062 3.070312 771.949219 2.355469 771.949219 1.472656 C 771.949219 0.589844 772.664062 -0.125 773.546875 -0.125 C 774.429688 -0.125 775.144531 0.589844 775.144531 1.472656 Z M 775.144531 1.472656 "/></g><g clip-rule="nonzero" clip-path="url(#d50d3d2c92)"><path style=" stroke:none;fill-rule:nonzero;fill:#203f9a;fill-opacity:1;" d="M 792.546875 1.472656 C 792.546875 2.355469 791.832031 3.070312 790.949219 3.070312 C 790.066406 3.070312 789.351562 2.355469 789.351562 1.472656 C 789.351562 0.589844 790.066406 -0.125 790.949219 -0.125 C 791.832031 -0.125 792.546875 0.589844 792.546875 1.472656 Z M 792.546875 1.472656 "/></g><g clip-rule="nonzero" clip-path="url(#504cc33f5d)"><path style=" stroke:none;fill-rule:nonzero;fill:#203f9a;fill-opacity:1;" d="M 808.355469 3.070312 C 809.238281 3.070312 809.953125 2.355469 809.953125 1.472656 C 809.953125 0.589844 809.238281 -0.125 808.355469 -0.125 C 807.472656 -0.125 806.753906 0.589844 806.753906 1.472656 C 806.753906 2.355469 807.472656 3.070312 808.355469 3.070312 Z M 808.355469 3.070312 "/></g><g clip-rule="nonzero" clip-path="url(#0f2f6adfa8)"><path style=" stroke:none;fill-rule:nonzero;fill:#203f9a;fill-opacity:1;" d="M 775.144531 19.050781 C 775.144531 19.933594 774.429688 20.648438 773.546875 20.648438 C 772.664062 20.648438 771.949219 19.933594 771.949219 19.050781 C 771.949219 18.167969 772.664062 17.453125 773.546875 17.453125 C 774.429688 17.453125 775.144531 18.167969 775.144531 19.050781 Z M 775.144531 19.050781 "/></g><path style=" stroke:none;fill-rule:nonzero;fill:#203f9a;fill-opacity:1;" d="M 790.949219 20.648438 C 791.832031 20.648438 792.546875 19.933594 792.546875 19.050781 C 792.546875 18.167969 791.832031 17.453125 790.949219 17.453125 C 790.066406 17.453125 789.351562 18.167969 789.351562 19.050781 C 789.351562 19.933594 790.066406 20.648438 790.949219 20.648438 Z M 790.949219 20.648438 "/><path style=" stroke:none;fill-rule:nonzero;fill:#203f9a;fill-opacity:1;" d="M 809.953125 19.050781 C 809.953125 19.933594 809.238281 20.648438 808.355469 20.648438 C 807.472656 20.648438 806.753906 19.933594 806.753906 19.050781 C 806.753906 18.167969 807.472656 17.453125 808.355469 17.453125 C 809.238281 17.453125 809.953125 18.167969 809.953125 19.050781 Z M 809.953125 19.050781 "/><g clip-rule="nonzero" clip-path="url(#9cce9b2d27)"><path style=" stroke:none;fill-rule:nonzero;fill:#203f9a;fill-opacity:1;" d="M 773.546875 38.234375 C 774.429688 38.234375 775.144531 37.519531 775.144531 36.636719 C 775.144531 35.753906 774.429688 35.039062 773.546875 35.039062 C 772.664062 35.039062 771.949219 35.753906 771.949219 36.636719 C 771.949219 37.519531 772.664062 38.234375 773.546875 38.234375 Z M 773.546875 38.234375 "/></g><g clip-rule="nonzero" clip-path="url(#51e97efccd)"><path style=" stroke:none;fill-rule:nonzero;fill:#203f9a;fill-opacity:1;" d="M 792.546875 36.636719 C 792.546875 37.519531 791.832031 38.234375 790.949219 38.234375 C 790.066406 38.234375 789.351562 37.519531 789.351562 36.636719 C 789.351562 35.753906 790.066406 35.039062 790.949219 35.039062 C 791.832031 35.039062 792.546875 35.753906 792.546875 36.636719 Z M 792.546875 36.636719 "/></g><g clip-rule="nonzero" clip-path="url(#5f149f5e9f)"><path style=" stroke:none;fill-rule:nonzero;fill:#203f9a;fill-opacity:1;" d="M 808.355469 38.234375 C 809.238281 38.234375 809.953125 37.519531 809.953125 36.636719 C 809.953125 35.753906 809.238281 35.039062 808.355469 35.039062 C 807.472656 35.039062 806.753906 35.753906 806.753906 36.636719 C 806.753906 37.519531 807.472656 38.234375 808.355469 38.234375 Z M 808.355469 38.234375 "/></g><g style="fill:#0c1a43;fill-opacity:1;"><g transform="translate(362.455093, 401.299837)"><path style="stroke:none" d="M 1.84375 -5.4375 L 1.84375 -8.625 L 10.90625 -8.625 L 10.90625 -5.4375 Z M 1.84375 -5.4375 "/></g></g><g style="fill:#0c1a43;fill-opacity:1;"><g transform="translate(375.230181, 401.299837)"><path style="stroke:none" d=""/></g></g><g style="fill:#0c1a43;fill-opacity:1;"><g transform="translate(381.782534, 401.299837)"><path style="stroke:none" d=""/></g></g><g style="fill:#0c1a43;fill-opacity:1;"><g transform="translate(388.334887, 401.299837)"><path style="stroke:none" d=""/></g></g><g style="fill:#0c1a43;fill-opacity:1;"><g transform="translate(394.88724, 401.299837)"><path style="stroke:none" d=""/></g></g><g style="fill:#0c1a43;fill-opacity:1;"><g transform="translate(401.439594, 401.299837)"><path style="stroke:none" d=""/></g></g><g style="fill:#0c1a43;fill-opacity:1;"><g transform="translate(407.991947, 401.299837)"><path style="stroke:none" d=""/></g></g><g style="fill:#0c1a43;fill-opacity:1;"><g transform="translate(414.5443, 401.299837)"><path style="stroke:none" d=""/></g></g><g style="fill:#0c1a43;fill-opacity:1;"><g transform="translate(421.096653, 401.299837)"><path style="stroke:none" d=""/></g></g><g style="fill:#0c1a43;fill-opacity:1;"><g transform="translate(427.649006, 401.299837)"><path style="stroke:none" d=""/></g></g><g style="fill:#0c1a43;fill-opacity:1;"><g transform="translate(434.20355, 401.299837)"><path style="stroke:none" d="M 1.84375 -5.4375 L 1.84375 -8.625 L 10.90625 -8.625 L 10.90625 -5.4375 Z M 1.84375 -5.4375 "/></g></g><g style="fill:#203f9a;fill-opacity:1;"><g transform="translate(386.63518, 398.812411)"><path style="stroke:none" d="M 2.5625 -0.03125 C 2.488281 0.113281 2.367188 0.25 2.203125 0.375 C 2.035156 0.5 1.859375 0.5625 1.671875 0.5625 C 1.617188 0.570312 1.546875 0.578125 1.453125 0.578125 C 1.378906 0.578125 1.300781 0.566406 1.21875 0.546875 C 1.144531 0.535156 1.035156 0.519531 0.890625 0.5 C 0.515625 0.351562 0.203125 0.128906 -0.046875 -0.171875 C -0.296875 -0.484375 -0.421875 -0.878906 -0.421875 -1.359375 C -0.421875 -1.453125 -0.414062 -1.539062 -0.40625 -1.625 C -0.394531 -1.707031 -0.378906 -1.796875 -0.359375 -1.890625 C -0.285156 -2.378906 -0.164062 -2.859375 0 -3.328125 C 0.164062 -3.804688 0.34375 -4.257812 0.53125 -4.6875 C 0.882812 -5.5625 1.289062 -6.363281 1.75 -7.09375 C 2.21875 -7.820312 2.703125 -8.5625 3.203125 -9.3125 C 3.460938 -9.6875 3.710938 -10.046875 3.953125 -10.390625 C 4.203125 -10.742188 4.414062 -11.128906 4.59375 -11.546875 C 4.6875 -11.628906 4.796875 -11.71875 4.921875 -11.8125 C 5.054688 -11.90625 5.203125 -11.953125 5.359375 -11.953125 C 5.484375 -11.953125 5.613281 -11.914062 5.75 -11.84375 C 5.800781 -11.820312 5.847656 -11.796875 5.890625 -11.765625 C 5.941406 -11.742188 5.992188 -11.710938 6.046875 -11.671875 C 6.140625 -11.597656 6.242188 -11.53125 6.359375 -11.46875 C 6.484375 -11.40625 6.582031 -11.328125 6.65625 -11.234375 L 6.71875 -11.234375 C 6.789062 -11.234375 6.863281 -11.207031 6.9375 -11.15625 C 7.007812 -11.113281 7.082031 -11.066406 7.15625 -11.015625 C 7.175781 -11.015625 7.1875 -11.007812 7.1875 -11 C 7.1875 -10.988281 7.195312 -10.984375 7.21875 -10.984375 C 7.257812 -10.960938 7.304688 -10.921875 7.359375 -10.859375 C 7.410156 -10.796875 7.472656 -10.722656 7.546875 -10.640625 C 7.753906 -10.472656 7.859375 -10.257812 7.859375 -10 C 7.859375 -9.832031 7.8125 -9.628906 7.71875 -9.390625 C 7.664062 -9.285156 7.59375 -9.175781 7.5 -9.0625 C 7.40625 -8.945312 7.3125 -8.832031 7.21875 -8.71875 L 7.109375 -8.5625 C 6.847656 -8.144531 6.609375 -7.773438 6.390625 -7.453125 C 6.179688 -7.128906 6.003906 -6.8125 5.859375 -6.5 L 5.90625 -6.40625 C 6.539062 -6.90625 7.148438 -7.441406 7.734375 -8.015625 C 8.316406 -8.597656 8.953125 -9.316406 9.640625 -10.171875 C 9.867188 -10.453125 10.035156 -10.660156 10.140625 -10.796875 C 10.253906 -10.941406 10.414062 -11.078125 10.625 -11.203125 C 10.71875 -11.242188 10.796875 -11.296875 10.859375 -11.359375 C 10.921875 -11.421875 11 -11.472656 11.09375 -11.515625 C 11.132812 -11.515625 11.1875 -11.519531 11.25 -11.53125 C 11.3125 -11.539062 11.378906 -11.546875 11.453125 -11.546875 C 11.523438 -11.546875 11.597656 -11.539062 11.671875 -11.53125 C 11.753906 -11.519531 11.820312 -11.515625 11.875 -11.515625 C 11.925781 -11.492188 11.972656 -11.460938 12.015625 -11.421875 C 12.066406 -11.390625 12.125 -11.363281 12.1875 -11.34375 C 12.332031 -11.3125 12.46875 -11.28125 12.59375 -11.25 C 12.726562 -11.21875 12.832031 -11.175781 12.90625 -11.125 C 13.09375 -10.914062 13.1875 -10.632812 13.1875 -10.28125 C 13.1875 -10.082031 13.15625 -9.898438 13.09375 -9.734375 C 13.019531 -9.503906 12.925781 -9.289062 12.8125 -9.09375 C 12.707031 -8.90625 12.582031 -8.734375 12.4375 -8.578125 C 12.375 -8.492188 12.316406 -8.40625 12.265625 -8.3125 C 12.210938 -8.21875 12.144531 -8.125 12.0625 -8.03125 C 11.5625 -7.320312 11.109375 -6.601562 10.703125 -5.875 C 11.015625 -5.914062 11.28125 -6.023438 11.5 -6.203125 C 11.726562 -6.378906 11.9375 -6.5625 12.125 -6.75 C 12.21875 -6.800781 12.285156 -6.859375 12.328125 -6.921875 C 12.378906 -6.992188 12.441406 -7.054688 12.515625 -7.109375 C 12.492188 -6.921875 12.445312 -6.757812 12.375 -6.625 C 12.300781 -6.5 12.238281 -6.363281 12.1875 -6.21875 C 12.164062 -5.695312 11.972656 -5.242188 11.609375 -4.859375 C 11.242188 -4.484375 10.929688 -4.15625 10.671875 -3.875 C 10.523438 -3.820312 10.382812 -3.773438 10.25 -3.734375 C 10.125 -3.691406 9.988281 -3.65625 9.84375 -3.625 C 9.726562 -3.601562 9.625 -3.570312 9.53125 -3.53125 C 9.4375 -3.5 9.335938 -3.484375 9.234375 -3.484375 L 9.140625 -3.484375 C 9.066406 -3.523438 8.953125 -3.585938 8.796875 -3.671875 C 8.648438 -3.753906 8.550781 -3.820312 8.5 -3.875 C 8.3125 -4.0625 8.140625 -4.347656 7.984375 -4.734375 C 7.828125 -5.128906 7.722656 -5.445312 7.671875 -5.6875 L 5.9375 -4.375 C 5.5625 -4.09375 5.179688 -3.78125 4.796875 -3.4375 C 4.421875 -3.09375 4.132812 -2.789062 3.9375 -2.53125 C 3.5625 -2.09375 3.296875 -1.679688 3.140625 -1.296875 C 2.992188 -0.910156 2.800781 -0.488281 2.5625 -0.03125 Z M 2.5625 -0.03125 "/></g></g><g style="fill:#203f9a;fill-opacity:1;"><g transform="translate(398.841264, 398.812411)"><path style="stroke:none" d="M 5.96875 -7.6875 C 5.757812 -7.539062 5.515625 -7.335938 5.234375 -7.078125 C 4.960938 -6.816406 4.703125 -6.546875 4.453125 -6.265625 C 4.210938 -5.992188 4.019531 -5.753906 3.875 -5.546875 C 3.425781 -4.910156 3.035156 -4.3125 2.703125 -3.75 C 2.367188 -3.1875 2.144531 -2.578125 2.03125 -1.921875 C 2.238281 -1.960938 2.382812 -2 2.46875 -2.03125 C 2.550781 -2.070312 2.664062 -2.148438 2.8125 -2.265625 C 2.976562 -2.367188 3.128906 -2.484375 3.265625 -2.609375 C 3.410156 -2.742188 3.546875 -2.878906 3.671875 -3.015625 C 4.378906 -3.660156 5.085938 -4.441406 5.796875 -5.359375 C 6.503906 -6.285156 7.15625 -7.109375 7.75 -7.828125 C 7.875 -7.984375 8 -8.125 8.125 -8.25 C 8.25 -8.382812 8.347656 -8.539062 8.421875 -8.71875 C 7.898438 -8.707031 7.4375 -8.597656 7.03125 -8.390625 C 6.632812 -8.179688 6.28125 -7.945312 5.96875 -7.6875 Z M 6.65625 2.421875 C 6.550781 1.878906 6.5 1.390625 6.5 0.953125 C 6.5 0.078125 6.613281 -0.726562 6.84375 -1.46875 C 7.070312 -2.21875 7.242188 -2.972656 7.359375 -3.734375 C 7.242188 -3.710938 7.160156 -3.644531 7.109375 -3.53125 C 7.054688 -3.425781 6.984375 -3.347656 6.890625 -3.296875 C 6.535156 -2.898438 6.144531 -2.488281 5.71875 -2.0625 C 5.289062 -1.632812 4.851562 -1.234375 4.40625 -0.859375 C 4.351562 -0.804688 4.285156 -0.75 4.203125 -0.6875 C 4.128906 -0.632812 4.054688 -0.570312 3.984375 -0.5 C 3.765625 -0.3125 3.488281 -0.117188 3.15625 0.078125 C 2.832031 0.285156 2.46875 0.390625 2.0625 0.390625 L 2 0.390625 C 1.894531 0.390625 1.785156 0.375 1.671875 0.34375 C 1.554688 0.320312 1.445312 0.3125 1.34375 0.3125 C 0.914062 0.0507812 0.523438 -0.304688 0.171875 -0.765625 C -0.179688 -1.222656 -0.378906 -1.628906 -0.421875 -1.984375 C -0.421875 -2.035156 -0.425781 -2.09375 -0.4375 -2.15625 C -0.445312 -2.226562 -0.453125 -2.300781 -0.453125 -2.375 C -0.453125 -2.8125 -0.398438 -3.296875 -0.296875 -3.828125 C -0.191406 -4.359375 -0.0703125 -4.78125 0.0625 -5.09375 C 0.425781 -5.988281 0.859375 -6.867188 1.359375 -7.734375 C 1.867188 -8.597656 2.671875 -9.515625 3.765625 -10.484375 C 3.929688 -10.609375 4.09375 -10.722656 4.25 -10.828125 C 4.40625 -10.929688 4.550781 -11.046875 4.6875 -11.171875 C 4.71875 -11.210938 4.75 -11.257812 4.78125 -11.3125 C 4.820312 -11.375 4.851562 -11.410156 4.875 -11.421875 C 4.945312 -11.503906 5.007812 -11.582031 5.0625 -11.65625 C 5.125 -11.726562 5.222656 -11.765625 5.359375 -11.765625 C 5.441406 -11.765625 5.628906 -11.738281 5.921875 -11.6875 C 6.210938 -11.644531 6.40625 -11.597656 6.5 -11.546875 L 7.078125 -11.296875 C 7.171875 -11.234375 7.269531 -11.15625 7.375 -11.0625 C 7.488281 -10.96875 7.59375 -10.90625 7.6875 -10.875 C 7.84375 -10.8125 7.972656 -10.773438 8.078125 -10.765625 C 8.191406 -10.765625 8.304688 -10.71875 8.421875 -10.625 C 8.523438 -10.488281 8.707031 -10.34375 8.96875 -10.1875 C 9.226562 -10.03125 9.4375 -9.90625 9.59375 -9.8125 C 9.71875 -9.90625 9.800781 -9.992188 9.84375 -10.078125 C 9.894531 -10.160156 9.988281 -10.304688 10.125 -10.515625 C 10.695312 -11.722656 11.3125 -12.960938 11.96875 -14.234375 C 12.632812 -15.503906 13.300781 -16.707031 13.96875 -17.84375 C 14.0625 -18.007812 14.160156 -18.171875 14.265625 -18.328125 C 14.378906 -18.484375 14.472656 -18.644531 14.546875 -18.8125 C 14.566406 -18.882812 14.597656 -18.96875 14.640625 -19.0625 C 14.691406 -19.15625 14.71875 -19.238281 14.71875 -19.3125 L 14.71875 -19.625 C 14.757812 -19.675781 14.800781 -19.722656 14.84375 -19.765625 C 14.882812 -19.816406 14.925781 -19.875 14.96875 -19.9375 C 14.988281 -19.9375 15.003906 -19.9375 15.015625 -19.9375 C 15.023438 -19.945312 15.03125 -19.953125 15.03125 -19.953125 L 15.109375 -19.953125 C 15.222656 -19.953125 15.347656 -19.9375 15.484375 -19.90625 C 15.617188 -19.882812 15.726562 -19.875 15.8125 -19.875 L 15.890625 -19.875 C 16.035156 -19.75 16.21875 -19.640625 16.4375 -19.546875 C 16.664062 -19.453125 16.875 -19.347656 17.0625 -19.234375 C 17.15625 -19.191406 17.242188 -19.148438 17.328125 -19.109375 C 17.410156 -19.078125 17.476562 -19.046875 17.53125 -19.015625 C 17.664062 -18.941406 17.789062 -18.820312 17.90625 -18.65625 C 18.03125 -18.5 18.101562 -18.347656 18.125 -18.203125 C 18.132812 -18.148438 18.140625 -18.066406 18.140625 -17.953125 C 18.140625 -17.691406 18.085938 -17.488281 17.984375 -17.34375 C 17.941406 -17.28125 17.894531 -17.226562 17.84375 -17.1875 C 17.800781 -17.15625 17.765625 -17.125 17.734375 -17.09375 C 17.617188 -16.957031 17.515625 -16.8125 17.421875 -16.65625 C 17.328125 -16.5 17.234375 -16.335938 17.140625 -16.171875 C 16.953125 -15.867188 16.71875 -15.492188 16.4375 -15.046875 C 16.164062 -14.609375 15.894531 -14.171875 15.625 -13.734375 C 15.351562 -13.296875 15.125 -12.914062 14.9375 -12.59375 C 14.570312 -11.96875 14.21875 -11.320312 13.875 -10.65625 C 13.53125 -10 13.179688 -9.347656 12.828125 -8.703125 C 12.472656 -8.023438 12.148438 -7.335938 11.859375 -6.640625 C 11.566406 -5.953125 11.265625 -5.253906 10.953125 -4.546875 L 10.140625 -2.375 C 10.015625 -2 9.875 -1.632812 9.71875 -1.28125 C 9.570312 -0.925781 9.4375 -0.5625 9.3125 -0.1875 C 9.238281 -0.0195312 9.148438 0.15625 9.046875 0.34375 C 8.941406 0.539062 8.890625 0.742188 8.890625 0.953125 C 8.765625 1.046875 8.679688 1.175781 8.640625 1.34375 C 8.597656 1.507812 8.5625 1.675781 8.53125 1.84375 C 8.507812 1.894531 8.476562 1.929688 8.4375 1.953125 C 8.40625 1.972656 8.367188 2 8.328125 2.03125 C 8.296875 2.070312 8.265625 2.128906 8.234375 2.203125 C 8.203125 2.273438 8.171875 2.347656 8.140625 2.421875 L 8.109375 2.453125 C 8.035156 2.523438 7.957031 2.601562 7.875 2.6875 C 7.789062 2.769531 7.679688 2.8125 7.546875 2.8125 L 7.46875 2.8125 C 7.351562 2.789062 7.269531 2.742188 7.21875 2.671875 C 7.164062 2.597656 7.09375 2.546875 7 2.515625 C 6.9375 2.492188 6.882812 2.484375 6.84375 2.484375 C 6.8125 2.484375 6.75 2.460938 6.65625 2.421875 Z M 6.65625 2.421875 "/></g></g><g style="fill:#93c3da;fill-opacity:1;"><g transform="translate(411.502366, 398.812411)"><path style="stroke:none" d="M 6 -7.9375 C 6.269531 -8.09375 6.503906 -8.226562 6.703125 -8.34375 C 6.898438 -8.46875 7.117188 -8.59375 7.359375 -8.71875 C 7.566406 -8.875 7.757812 -9.019531 7.9375 -9.15625 C 8.125 -9.289062 8.332031 -9.425781 8.5625 -9.5625 C 8.820312 -9.769531 9.097656 -9.988281 9.390625 -10.21875 C 9.691406 -10.445312 10.019531 -10.757812 10.375 -11.15625 L 10.453125 -11.203125 C 10.566406 -11.273438 10.679688 -11.328125 10.796875 -11.359375 C 10.921875 -11.398438 11.128906 -11.421875 11.421875 -11.421875 C 11.515625 -11.421875 11.617188 -11.421875 11.734375 -11.421875 C 11.847656 -11.421875 11.96875 -11.414062 12.09375 -11.40625 L 12.15625 -11.40625 C 12.25 -11.40625 12.34375 -11.410156 12.4375 -11.421875 C 12.539062 -11.441406 12.632812 -11.453125 12.71875 -11.453125 C 12.789062 -11.453125 12.832031 -11.441406 12.84375 -11.421875 C 12.957031 -11.367188 13.082031 -11.332031 13.21875 -11.3125 C 13.363281 -11.300781 13.5 -11.253906 13.625 -11.171875 C 13.738281 -11.097656 13.847656 -10.945312 13.953125 -10.71875 C 14.066406 -10.5 14.125 -10.28125 14.125 -10.0625 C 14.125 -9.820312 14.050781 -9.632812 13.90625 -9.5 C 13.832031 -9.425781 13.734375 -9.363281 13.609375 -9.3125 C 13.492188 -9.269531 13.378906 -9.222656 13.265625 -9.171875 C 12.546875 -8.765625 11.832031 -8.398438 11.125 -8.078125 C 10.414062 -7.765625 9.738281 -7.457031 9.09375 -7.15625 C 8.675781 -6.976562 8.359375 -6.847656 8.140625 -6.765625 C 7.921875 -6.679688 7.648438 -6.582031 7.328125 -6.46875 C 7.347656 -5.925781 7.421875 -5.378906 7.546875 -4.828125 C 7.679688 -4.285156 7.820312 -3.773438 7.96875 -3.296875 C 8.007812 -3.046875 8.082031 -2.785156 8.1875 -2.515625 C 8.300781 -2.253906 8.394531 -1.992188 8.46875 -1.734375 C 8.488281 -1.640625 8.515625 -1.539062 8.546875 -1.4375 C 8.585938 -1.332031 8.640625 -1.257812 8.703125 -1.21875 C 8.710938 -1.21875 8.722656 -1.210938 8.734375 -1.203125 C 8.742188 -1.203125 8.757812 -1.203125 8.78125 -1.203125 C 8.894531 -1.203125 9.039062 -1.257812 9.21875 -1.375 C 9.394531 -1.5 9.523438 -1.585938 9.609375 -1.640625 C 9.929688 -1.847656 10.179688 -2.066406 10.359375 -2.296875 C 10.535156 -2.523438 10.6875 -2.8125 10.8125 -3.15625 C 10.851562 -3.132812 10.875 -3.078125 10.875 -2.984375 L 10.875 -2.59375 C 10.875 -2.5 10.898438 -2.410156 10.953125 -2.328125 C 11.003906 -2.242188 11.03125 -2.128906 11.03125 -1.984375 L 11.03125 -1.921875 C 11.019531 -1.535156 10.921875 -1.195312 10.734375 -0.90625 C 10.546875 -0.613281 10.378906 -0.359375 10.234375 -0.140625 C 10.160156 -0.0664062 10.085938 0 10.015625 0.0625 C 9.953125 0.132812 9.882812 0.1875 9.8125 0.21875 C 9.789062 0.238281 9.75 0.257812 9.6875 0.28125 C 9.625 0.300781 9.5625 0.328125 9.5 0.359375 C 9.445312 0.378906 9.390625 0.40625 9.328125 0.4375 C 9.273438 0.476562 9.234375 0.5 9.203125 0.5 C 9.128906 0.519531 9.046875 0.535156 8.953125 0.546875 C 8.859375 0.554688 8.765625 0.5625 8.671875 0.5625 C 8.367188 0.5625 8.097656 0.507812 7.859375 0.40625 C 7.617188 0.300781 7.40625 0.1875 7.21875 0.0625 C 6.695312 -0.476562 6.242188 -1.019531 5.859375 -1.5625 C 5.484375 -2.101562 5.109375 -2.742188 4.734375 -3.484375 C 4.609375 -3.742188 4.503906 -3.992188 4.421875 -4.234375 C 4.335938 -4.472656 4.226562 -4.71875 4.09375 -4.96875 C 3.632812 -4.28125 3.207031 -3.671875 2.8125 -3.140625 C 2.425781 -2.609375 2 -2.007812 1.53125 -1.34375 C 1.382812 -1.132812 1.273438 -0.929688 1.203125 -0.734375 C 1.140625 -0.546875 1.035156 -0.335938 0.890625 -0.109375 C 0.796875 -0.015625 0.703125 0.0820312 0.609375 0.1875 C 0.515625 0.300781 0.421875 0.429688 0.328125 0.578125 C 0.148438 0.710938 -0.0664062 0.828125 -0.328125 0.921875 C -0.585938 1.015625 -0.867188 1.0625 -1.171875 1.0625 L -1.359375 1.0625 C -1.441406 0.96875 -1.503906 0.867188 -1.546875 0.765625 C -1.585938 0.660156 -1.609375 0.523438 -1.609375 0.359375 L -1.609375 0.25 C -1.578125 -0.175781 -1.488281 -0.601562 -1.34375 -1.03125 C -1.207031 -1.457031 -1.054688 -1.859375 -0.890625 -2.234375 C -0.796875 -2.492188 -0.660156 -2.8125 -0.484375 -3.1875 C -0.304688 -3.570312 -0.128906 -3.953125 0.046875 -4.328125 C 0.234375 -4.710938 0.382812 -5.015625 0.5 -5.234375 C 0.851562 -5.921875 1.210938 -6.601562 1.578125 -7.28125 C 1.941406 -7.96875 2.328125 -8.617188 2.734375 -9.234375 L 2.953125 -9.5625 C 3.328125 -10.132812 3.703125 -10.71875 4.078125 -11.3125 C 4.460938 -11.90625 4.832031 -12.472656 5.1875 -13.015625 C 5.3125 -13.222656 5.507812 -13.53125 5.78125 -13.9375 C 6.050781 -14.34375 6.320312 -14.757812 6.59375 -15.1875 C 6.863281 -15.613281 7.050781 -15.941406 7.15625 -16.171875 C 7.289062 -16.335938 7.453125 -16.554688 7.640625 -16.828125 C 7.835938 -17.109375 8.015625 -17.394531 8.171875 -17.6875 C 8.335938 -17.976562 8.421875 -18.207031 8.421875 -18.375 C 8.492188 -18.519531 8.625 -18.671875 8.8125 -18.828125 C 9.007812 -18.984375 9.191406 -19.097656 9.359375 -19.171875 C 9.398438 -19.191406 9.457031 -19.203125 9.53125 -19.203125 C 9.625 -19.203125 9.707031 -19.1875 9.78125 -19.15625 C 9.851562 -19.132812 9.921875 -19.113281 9.984375 -19.09375 C 10.015625 -19.09375 10.09375 -19.09375 10.21875 -19.09375 C 10.351562 -19.09375 10.429688 -19.082031 10.453125 -19.0625 C 10.523438 -19.039062 10.585938 -18.992188 10.640625 -18.921875 C 10.703125 -18.847656 10.769531 -18.8125 10.84375 -18.8125 C 11.175781 -18.78125 11.472656 -18.6875 11.734375 -18.53125 C 11.992188 -18.382812 12.179688 -18.179688 12.296875 -17.921875 C 12.347656 -17.847656 12.375 -17.738281 12.375 -17.59375 C 12.375 -17.40625 12.335938 -17.238281 12.265625 -17.09375 C 12.222656 -16.957031 12.132812 -16.804688 12 -16.640625 C 11.875 -16.472656 11.738281 -16.316406 11.59375 -16.171875 C 11.40625 -15.867188 11.128906 -15.460938 10.765625 -14.953125 C 10.410156 -14.441406 10.050781 -13.929688 9.6875 -13.421875 C 9.320312 -12.910156 9.039062 -12.503906 8.84375 -12.203125 C 8.394531 -11.535156 7.894531 -10.820312 7.34375 -10.0625 C 6.789062 -9.300781 6.34375 -8.59375 6 -7.9375 Z M 6 -7.9375 "/></g></g></g></svg>