<?xml version="1.0" encoding="UTF-8"?>
<svg version="1.1" xmlns="http://www.w3.org/2000/svg" width="180" height="90">
<path d="M0 0 C59.4 0 118.8 0 180 0 C180 29.7 180 59.4 180 90 C120.6 90 61.2 90 0 90 C0 60.3 0 30.6 0 0 Z " fill="#EFF0EE" transform="translate(0,0)"/>
<path d="M0 0 C5.98254431 3.87992595 7.90593652 8.42494707 10.4375 14.9375 C11.20780547 16.82289726 11.98125799 18.70701173 12.7578125 20.58984375 C13.13454102 21.51007324 13.51126953 22.43030273 13.89941406 23.37841797 C15.41297077 26.98369124 17.06594838 30.50255809 18.8125 34 C19.33457031 35.051875 19.85664063 36.10375 20.39453125 37.1875 C21.93418859 40.07838108 21.93418859 40.07838108 24.18359375 42.60546875 C26.93616166 46.23412279 26.30028145 48.57084864 26 53 C25.34 53 24.68 53 24 53 C24 54.32 24 55.64 24 57 C31.26 57.99 38.52 58.98 46 60 C44 69 44 69 42.9375 72.5625 C41.72010357 76.70710678 41.72010357 76.70710678 41 84 C11.63 84 -17.74 84 -48 84 C-48 83.34 -48 82.68 -48 82 C-48.66 82 -49.32 82 -50 82 C-49.67 80.35 -49.34 78.7 -49 77 C-49.94875 77.04125 -50.8975 77.0825 -51.875 77.125 C-55 77 -55 77 -57 75 C-56.34 75 -55.68 75 -55 75 C-55.33 72.69 -55.66 70.38 -56 68 C-56.66 68 -57.32 68 -58 68 C-57.5625 65.625 -57.5625 65.625 -56 63 C-53.07086973 61.86754815 -50.12882082 61.25716336 -47 61 C-46.67 61.33 -46.34 61.66 -46 62 C-40.69771831 62.51729578 -36.7685439 61.05821767 -32 59 C-31.21625 58.67 -30.4325 58.34 -29.625 58 C-27.66461561 56.94965449 -27.66461561 56.94965449 -26 54 C-24.68 54 -23.36 54 -22 54 C-21.67 52.35 -21.34 50.7 -21 49 C-20.34 49.66 -19.68 50.32 -19 51 C-18.54625 50.34 -18.0925 49.68 -17.625 49 C-17.08875 48.34 -16.5525 47.68 -16 47 C-15.34 47 -14.68 47 -14 47 C-13.505 56.405 -13.505 56.405 -13 66 C-13.66 65.01 -14.32 64.02 -15 63 C-15.66 63 -16.32 63 -17 63 C-17 63.66 -17 64.32 -17 65 C-17.99 65.33 -18.98 65.66 -20 66 C-17.03 66.66 -14.06 67.32 -11 68 C-11.04125 66.7625 -11.0825 65.525 -11.125 64.25 C-11.13430087 58.40905326 -10.26685037 52.6962031 -9 47 C-8.67 46.67 -8.34 46.34 -8 46 C-9.32 45.67 -10.64 45.34 -12 45 C-12.495 45.99 -12.495 45.99 -13 47 C-13.4375 43.8125 -13.4375 43.8125 -13 40 C-11.33337706 38.35047063 -9.64361515 37.23551361 -7.62890625 36.04296875 C-5.83031155 35.0873756 -5.83031155 35.0873756 -5 33 C-5.763125 33.0825 -6.52625 33.165 -7.3125 33.25 C-10 33 -10 33 -11.8125 31.25 C-13 29 -13 29 -13 25 C-13.66 25 -14.32 25 -15 25 C-16.94963259 19.3948063 -17.98647989 13.92894546 -17 8 C-14.8125 5.0625 -14.8125 5.0625 -12 3 C-11.21625 2.401875 -10.4325 1.80375 -9.625 1.1875 C-6.0955426 -0.4091593 -3.83941962 -0.53886591 0 0 Z " fill="#B3C2CB" transform="translate(125,6)"/>
<path d="M0 0 C19.47 0 38.94 0 59 0 C59 29.7 59 59.4 59 90 C54.38 90 49.76 90 45 90 C44.72661828 83.93092582 45.53907555 79.22377946 47.5 73.5 C47.73847656 72.77296875 47.97695312 72.0459375 48.22265625 71.296875 C48.80460176 69.52776065 49.40080457 67.76334654 50 66 C49.24976563 65.93941406 48.49953125 65.87882812 47.7265625 65.81640625 C41.14340319 65.27748263 34.56976544 64.68313933 28 64 C27.67 63.01 27.34 62.02 27 61 C27.33 60.34 27.66 59.68 28 59 C28.66 59 29.32 59 30 59 C29.76926409 52.65476251 28.15644735 49.21227089 24.48046875 44.078125 C22.64474444 41.50132993 21.32206004 38.87404356 20 36 C19.46632812 34.85144531 19.46632812 34.85144531 18.921875 33.6796875 C17.04263374 29.60006882 15.20943488 25.52868156 13.5546875 21.3515625 C10.93713001 14.7637558 8.9736644 10.02875041 3 6 C2.67 5.01 2.34 4.02 2 3 C1.34 2.67 0.68 2.34 0 2 C0 1.34 0 0.68 0 0 Z " fill="#F1F2F5" transform="translate(121,0)"/>
<path d="M0 0 C0.763125 0.226875 1.52625 0.45375 2.3125 0.6875 C1.3225 1.6775 0.3325 2.6675 -0.6875 3.6875 C-0.20723152 6.63568931 -0.20723152 6.63568931 1.3125 9.6875 C4.80047488 11.48021391 4.80047488 11.48021391 8.3125 12.6875 C8.8075 13.6775 8.8075 13.6775 9.3125 14.6875 C8.77524105 11.31044375 8.20185377 7.990814 7.3125 4.6875 C8.6325 4.0275 9.9525 3.3675 11.3125 2.6875 C11.3125 1.6975 11.3125 0.7075 11.3125 -0.3125 C12.3025 0.0175 13.2925 0.3475 14.3125 0.6875 C14.8075 3.6575 14.8075 3.6575 15.3125 6.6875 C14.6525 6.6875 13.9925 6.6875 13.3125 6.6875 C13.3125 8.0075 13.3125 9.3275 13.3125 10.6875 C20.5725 11.6775 27.8325 12.6675 35.3125 13.6875 C33.3125 22.6875 33.3125 22.6875 32.25 26.25 C31.03260357 30.39460678 31.03260357 30.39460678 30.3125 37.6875 C0.9425 37.6875 -28.4275 37.6875 -58.6875 37.6875 C-58.6875 37.0275 -58.6875 36.3675 -58.6875 35.6875 C-59.3475 35.6875 -60.0075 35.6875 -60.6875 35.6875 C-60.3575 34.0375 -60.0275 32.3875 -59.6875 30.6875 C-60.3475 30.3575 -61.0075 30.0275 -61.6875 29.6875 C-59.98980469 29.48833984 -59.98980469 29.48833984 -58.2578125 29.28515625 C-56.77601821 29.1069658 -55.29424864 28.92856971 -53.8125 28.75 C-53.06613281 28.66298828 -52.31976563 28.57597656 -51.55078125 28.48632812 C-47.4921769 28.05423937 -47.4921769 28.05423937 -43.6875 26.6875 C-44.54214844 26.63851562 -45.39679688 26.58953125 -46.27734375 26.5390625 C-47.38207031 26.46429688 -48.48679687 26.38953125 -49.625 26.3125 C-50.72714844 26.24289063 -51.82929687 26.17328125 -52.96484375 26.1015625 C-53.86332031 25.96492188 -54.76179688 25.82828125 -55.6875 25.6875 C-56.0175 25.0275 -56.3475 24.3675 -56.6875 23.6875 C-47.47814288 21.59446429 -39.1750757 24.04996756 -30.6875 27.6875 C-26.70810569 28.50752689 -22.71081836 29.1259531 -18.6875 29.6875 C-18.6875 27.3775 -18.6875 25.0675 -18.6875 22.6875 C-16.3775 22.6875 -14.0675 22.6875 -11.6875 22.6875 C-9.1414615 18.32286257 -8.26026963 13.38769969 -7.22265625 8.49609375 C-6.58290684 5.62515218 -5.96383363 3.12173857 -4.375 0.625 C-2.6875 -0.3125 -2.6875 -0.3125 0 0 Z " fill="#D1D8DC" transform="translate(135.6875,52.3125)"/>
<path d="M0 0 C10.99693195 -1.17442963 10.99693195 -1.17442963 16 1 C20.09627435 5.20905152 24 13.10702025 24 19 C24.66 19.33 25.32 19.66 26 20 C25.67 20.66 25.34 21.32 25 22 C25.66 22 26.32 22 27 22 C27.495 25.96 27.495 25.96 28 30 C29.98 30.33 31.96 30.66 34 31 C33.67 32.65 33.34 34.3 33 36 C33.66 36 34.32 36 35 36 C35 36.66 35 37.32 35 38 C9.59 38 -15.82 38 -42 38 C-42 20 -42 20 -41 19 C-37.97357046 18.76807728 -34.96489148 18.59602155 -31.93359375 18.46484375 C-31.02497086 18.42186661 -30.11634796 18.37888947 -29.18019104 18.33460999 C-26.26614738 18.19780373 -23.35185067 18.06758569 -20.4375 17.9375 C-18.46677678 17.84613554 -16.49607329 17.75434434 -14.52539062 17.66210938 C-9.68380922 17.43644608 -4.84199086 17.21669258 0 17 C0 16.34 0 15.68 0 15 C0.99 14.34 1.98 13.68 3 13 C2.48636193 9.23332085 1.73730949 6.35879836 0 3 C0 2.01 0 1.02 0 0 Z " fill="#DEE6EA" transform="translate(42,52)"/>
<path d="M0 0 C3.196875 -0.020625 6.39375 -0.04125 9.6875 -0.0625 C10.68612061 -0.071604 11.68474121 -0.08070801 12.71362305 -0.09008789 C13.91305542 -0.09383423 13.91305542 -0.09383423 15.13671875 -0.09765625 C15.94842529 -0.10289307 16.76013184 -0.10812988 17.59643555 -0.11352539 C20.14864673 0.0070209 22.51026137 0.440051 25 1 C25.33 2.65 25.66 4.3 26 6 C27.3303125 5.87625 27.3303125 5.87625 28.6875 5.75 C32.72466718 6.05469186 34.13864711 7.22040005 37 10 C37.495 10.99 37.495 10.99 38 12 C40.31 12 42.62 12 45 12 C45 12.33 45 12.66 45 13 C46.98 13.33 48.96 13.66 51 14 C51 14.33 51 14.66 51 15 C49.3603125 15.185625 49.3603125 15.185625 47.6875 15.375 C43.92618198 15.75464801 43.92618198 15.75464801 41 18 C39.948125 18.2165625 39.948125 18.2165625 38.875 18.4375 C38.25625 18.623125 37.6375 18.80875 37 19 C36.505 20.485 36.505 20.485 36 22 C39.63 22.33 43.26 22.66 47 23 C47 23.33 47 23.66 47 24 C51.29 24.33 55.58 24.66 60 25 C60 25.33 60 25.66 60 26 C63.3 26.33 66.6 26.66 70 27 C70 27.33 70 27.66 70 28 C55.81 28 41.62 28 27 28 C27 27.34 27 26.68 27 26 C26.34 26 25.68 26 25 26 C25 27.32 25 28.64 25 30 C16.75 30 8.5 30 0 30 C0 20.1 0 10.2 0 0 Z " fill="#E7E9E5" transform="translate(0,0)"/>
<path d="M0 0 C0 1.65 0 3.3 0 5 C3.30567489 5.85387105 3.30567489 5.85387105 7 6 C9.46172153 4.207809 9.46172153 4.207809 11 2 C9.75023244 5.65316671 9.32901247 6.78065836 6 9 C3.8125 8.625 3.8125 8.625 2 8 C2 8.99 2 9.98 2 11 C1 12 0 13 -1 14 C-3.84896798 18.71175473 -4.5359652 22.61719631 -5 28 C-4.34 28 -3.68 28 -3 28 C-2.95745644 29.99954746 -2.95919217 32.00041636 -3 34 C-3.33 34.33 -3.66 34.66 -4 35 C-4.36760731 37.32817964 -4.70241581 39.6618385 -5 42 C-6.85498842 41.91166722 -8.709035 41.8034837 -10.5625 41.6875 C-12.11130859 41.60048828 -12.11130859 41.60048828 -13.69140625 41.51171875 C-17 41 -17 41 -20.3828125 39.53515625 C-24.42953007 37.81770484 -27.98082514 37.21568516 -32.3125 36.75 C-33.38467773 36.61464844 -33.38467773 36.61464844 -34.47851562 36.4765625 C-38.35053782 35.91465288 -38.35053782 35.91465288 -42 37 C-36.72 37.66 -31.44 38.32 -26 39 C-26 39.33 -26 39.66 -26 40 C-29.53957703 40.53574161 -33.08185805 41.05091141 -36.625 41.5625 C-38.12353516 41.78969727 -38.12353516 41.78969727 -39.65234375 42.02148438 C-44.67726846 42.73695379 -49.00003363 43.28838724 -54 42 C-53.01 41.505 -53.01 41.505 -52 41 C-52.33 38.69 -52.66 36.38 -53 34 C-53.66 34 -54.32 34 -55 34 C-54.5625 31.625 -54.5625 31.625 -53 29 C-50.07086973 27.86754815 -47.12882082 27.25716336 -44 27 C-43.67 27.33 -43.34 27.66 -43 28 C-37.69771831 28.51729578 -33.7685439 27.05821767 -29 25 C-28.21625 24.67 -27.4325 24.34 -26.625 24 C-24.66461561 22.94965449 -24.66461561 22.94965449 -23 20 C-21.68 20 -20.36 20 -19 20 C-18.67 18.35 -18.34 16.7 -18 15 C-17.34 15.66 -16.68 16.32 -16 17 C-15.54625 16.34 -15.0925 15.68 -14.625 15 C-14.08875 14.34 -13.5525 13.68 -13 13 C-12.34 13 -11.68 13 -11 13 C-10.505 22.405 -10.505 22.405 -10 32 C-10.66 31.01 -11.32 30.02 -12 29 C-12.66 29 -13.32 29 -14 29 C-14 29.66 -14 30.32 -14 31 C-14.99 31.33 -15.98 31.66 -17 32 C-14.03 32.66 -11.06 33.32 -8 34 C-8.04125 32.7625 -8.0825 31.525 -8.125 30.25 C-8.13430087 24.40905326 -7.26685037 18.6962031 -6 13 C-5.67 12.67 -5.34 12.34 -5 12 C-6.32 11.67 -7.64 11.34 -9 11 C-9.33 11.66 -9.66 12.32 -10 13 C-10.5625 9.875 -10.5625 9.875 -10 6 C-3.44034707 0 -3.44034707 0 0 0 Z " fill="#C5C7C9" transform="translate(122,40)"/>
<path d="M0 0 C1.22589844 0.01353516 1.22589844 0.01353516 2.4765625 0.02734375 C3.10304687 0.03894531 3.72953125 0.05054687 4.375 0.0625 C4.18164062 0.71734375 3.98828125 1.3721875 3.7890625 2.046875 C3.52867187 2.95953125 3.26828125 3.8721875 3 4.8125 C2.61714844 6.13507813 2.61714844 6.13507813 2.2265625 7.484375 C1.00434593 12.61992719 0.24286021 17.85533874 -0.625 23.0625 C-9.535 23.0625 -18.445 23.0625 -27.625 23.0625 C-29.96982759 17.20043103 -29.96982759 17.20043103 -28.625 13.0625 C-26.77064169 9.44208615 -24.58590127 6.83237538 -21.625 4.0625 C-20.965 3.4025 -20.305 2.7425 -19.625 2.0625 C-18.97504703 3.47728135 -18.33021278 4.89441487 -17.6875 6.3125 C-17.32785156 7.10140625 -16.96820313 7.8903125 -16.59765625 8.703125 C-15.72466721 10.82073698 -15.11161492 12.82919362 -14.625 15.0625 C-14.09390625 14.56878906 -13.5628125 14.07507813 -13.015625 13.56640625 C-12.30921875 12.92574219 -11.6028125 12.28507812 -10.875 11.625 C-10.17890625 10.98691406 -9.4828125 10.34882812 -8.765625 9.69140625 C-6.63707275 8.07168675 -5.23476595 7.47982744 -2.625 7.0625 C-2.295 5.7425 -1.965 4.4225 -1.625 3.0625 C-3.275 3.0625 -4.925 3.0625 -6.625 3.0625 C-6.625 2.4025 -6.625 1.7425 -6.625 1.0625 C-4.21954362 -0.14022819 -2.67503047 -0.03821472 0 0 Z " fill="#93A6B3" transform="translate(166.625,66.9375)"/>
<path d="M0 0 C0.763125 0.226875 1.52625 0.45375 2.3125 0.6875 C1.3225 1.6775 0.3325 2.6675 -0.6875 3.6875 C-0.20723152 6.63568931 -0.20723152 6.63568931 1.3125 9.6875 C4.80047488 11.48021391 4.80047488 11.48021391 8.3125 12.6875 C8.6425 13.3475 8.9725 14.0075 9.3125 14.6875 C8.77524105 11.31044375 8.20185377 7.990814 7.3125 4.6875 C8.6325 4.0275 9.9525 3.3675 11.3125 2.6875 C11.3125 1.6975 11.3125 0.7075 11.3125 -0.3125 C12.3025 0.0175 13.2925 0.3475 14.3125 0.6875 C14.8075 3.6575 14.8075 3.6575 15.3125 6.6875 C14.6525 6.6875 13.9925 6.6875 13.3125 6.6875 C13.3125 8.0075 13.3125 9.3275 13.3125 10.6875 C20.5725 11.6775 27.8325 12.6675 35.3125 13.6875 C35.3125 14.0175 35.3125 14.3475 35.3125 14.6875 C31.6825 15.0175 28.0525 15.3475 24.3125 15.6875 C24.3125 16.3475 24.3125 17.0075 24.3125 17.6875 C25.9625 17.6875 27.6125 17.6875 29.3125 17.6875 C29.125 20.0625 29.125 20.0625 28.3125 22.6875 C26.67215807 23.41654086 24.99948082 24.07405243 23.3125 24.6875 C21.62634218 26.33444485 19.95679829 27.99876121 18.3125 29.6875 C17.6525 29.6875 16.9925 29.6875 16.3125 29.6875 C13.8375 23.7475 13.8375 23.7475 11.3125 17.6875 C10.3225 18.3475 9.3325 19.0075 8.3125 19.6875 C7.6525 18.0375 6.9925 16.3875 6.3125 14.6875 C5.3225 16.1725 5.3225 16.1725 4.3125 17.6875 C3.9825 16.6975 3.6525 15.7075 3.3125 14.6875 C2.24 14.996875 1.1675 15.30625 0.0625 15.625 C-2.51616222 16.35562096 -5.08262102 17.06232904 -7.6875 17.6875 C-7.6875 18.3475 -7.6875 19.0075 -7.6875 19.6875 C-6.6975 20.0175 -5.7075 20.3475 -4.6875 20.6875 C-5.47125 21.14125 -6.255 21.595 -7.0625 22.0625 C-9.72448031 23.57178742 -9.72448031 23.57178742 -11.6875 25.6875 C-13.9975 25.0275 -16.3075 24.3675 -18.6875 23.6875 C-18.6875 23.3575 -18.6875 23.0275 -18.6875 22.6875 C-16.3775 22.6875 -14.0675 22.6875 -11.6875 22.6875 C-9.1414615 18.32286257 -8.26026963 13.38769969 -7.22265625 8.49609375 C-6.58290684 5.62515218 -5.96383363 3.12173857 -4.375 0.625 C-2.6875 -0.3125 -2.6875 -0.3125 0 0 Z " fill="#B8C3CA" transform="translate(135.6875,52.3125)"/>
<path d="M0 0 C10.99693195 -1.17442963 10.99693195 -1.17442963 16 1 C20.09627435 5.20905152 24 13.10702025 24 19 C24.66 19.33 25.32 19.66 26 20 C25.67 20.66 25.34 21.32 25 22 C25.66 22 26.32 22 27 22 C27.33 24.31 27.66 26.62 28 29 C26.47819196 28.91120235 24.95751235 28.80303 23.4375 28.6875 C22.59058594 28.62949219 21.74367188 28.57148437 20.87109375 28.51171875 C12.40793019 27.00331817 12.40793019 27.00331817 9.41235352 22.7409668 C7.84041468 19.87274685 6.43198288 16.97005416 5.0625 14 C4.56943359 12.989375 4.07636719 11.97875 3.56835938 10.9375 C0 3.49393204 0 3.49393204 0 0 Z " fill="#CCDAE2" transform="translate(42,52)"/>
<path d="M0 0 C6.0999975 3.96050708 8.04176293 8.7323904 10.625 15.375 C11.36314109 17.21777182 12.10525872 19.05895634 12.8515625 20.8984375 C13.20379883 21.77338867 13.55603516 22.64833984 13.91894531 23.54980469 C14.91456304 25.80635833 16.03640669 27.82254295 17.3359375 29.9140625 C19 33 19 33 18.75 35.4375 C18.5025 35.953125 18.255 36.46875 18 37 C17.39671875 36.57847656 16.7934375 36.15695313 16.171875 35.72265625 C15.37265625 35.17480469 14.5734375 34.62695312 13.75 34.0625 C12.56664062 33.24458984 12.56664062 33.24458984 11.359375 32.41015625 C9.17363007 31.10377559 7.4846199 30.45019489 5 30 C5 29.34 5 28.68 5 28 C4.34 28 3.68 28 3 28 C2.90234375 21.84765625 2.90234375 21.84765625 3 20 C3.33 19.67 3.66 19.34 4 19 C4.04063832 17.33382885 4.042721 15.66611905 4 14 C3.401875 14.33 2.80375 14.66 2.1875 15 C0 16 0 16 -3 16 C-3 15.34 -3 14.68 -3 14 C-9.98533796 12.43098141 -9.98533796 12.43098141 -17 11 C-16.67660877 7.93821529 -16.40321087 6.39888457 -14.1796875 4.19921875 C-5.90829969 -1.22625088 -5.90829969 -1.22625088 0 0 Z " fill="#5F4B41" transform="translate(125,6)"/>
<path d="M0 0 C3.54941216 0.21731095 6.59863267 0.04657456 10 -1 C10.66 -0.01 11.32 0.98 12 2 C14.17897492 3.00805555 14.17897492 3.00805555 16.625 3.6875 C17.44226563 3.93886719 18.25953125 4.19023438 19.1015625 4.44921875 C19.72804687 4.63097656 20.35453125 4.81273438 21 5 C21.33 4.34 21.66 3.68 22 3 C22 3.66 22 4.32 22 5 C26.62 5.66 31.24 6.32 36 7 C36 8.98 36 10.96 36 13 C34.14501158 12.91166722 32.290965 12.8034837 30.4375 12.6875 C29.40496094 12.62949219 28.37242188 12.57148437 27.30859375 12.51171875 C24 12 24 12 20.6171875 10.53515625 C16.57046993 8.81770484 13.01917486 8.21568516 8.6875 7.75 C7.61532227 7.61464844 7.61532227 7.61464844 6.52148438 7.4765625 C2.64946218 6.91465288 2.64946218 6.91465288 -1 8 C4.28 8.66 9.56 9.32 15 10 C15 10.33 15 10.66 15 11 C11.46042297 11.53574161 7.91814195 12.05091141 4.375 12.5625 C3.37597656 12.71396484 2.37695312 12.86542969 1.34765625 13.02148438 C-3.67726846 13.73695379 -8.00003363 14.28838724 -13 13 C-12.34 12.67 -11.68 12.34 -11 12 C-11.33 9.69 -11.66 7.38 -12 5 C-12.66 5 -13.32 5 -14 5 C-13.4375 2.625 -13.4375 2.625 -12 0 C-7.1280944 -2.11422318 -4.72226846 -2.17950852 0 0 Z " fill="#B29083" transform="translate(81,69)"/>
<path d="M0 0 C4.29 1.32 8.58 2.64 13 4 C13 4.66 13 5.32 13 6 C13.763125 5.484375 14.52625 4.96875 15.3125 4.4375 C16.199375 3.963125 17.08625 3.48875 18 3 C18.99 3.33 19.98 3.66 21 4 C21.042721 5.66611905 21.04063832 7.33382885 21 9 C20.67 9.33 20.34 9.66 20 10 C19.76924918 11.34747084 19.58846937 12.70377565 19.4375 14.0625 C19.293125 15.361875 19.14875 16.66125 19 18 C19.66 18 20.32 18 21 18 C21 18.66 21 19.32 21 20 C21.969375 20.12375 22.93875 20.2475 23.9375 20.375 C25.4534375 20.684375 25.4534375 20.684375 27 21 C27.33 21.66 27.66 22.32 28 23 C26.948125 22.7525 25.89625 22.505 24.8125 22.25 C20.94633751 21.6110158 20.94633751 21.6110158 18.0625 23.9375 C17.381875 24.618125 16.70125 25.29875 16 26 C15.4740625 25.2575 15.4740625 25.2575 14.9375 24.5 C12.94698703 22.63555068 12.94698703 22.63555068 9.5 23.0625 C6 23 6 23 4.0625 21.25 C3 19 3 19 3 15 C2.34 15 1.68 15 1 15 C-0.58455205 10.14730934 -1.31046812 6.1744687 -1 1 C-0.67 0.67 -0.34 0.34 0 0 Z " fill="#C4A394" transform="translate(109,16)"/>
<path d="M0 0 C3 2 3 2 4 4.3125 C4 7 4 7 1.6875 9.5625 C0.800625 10.366875 -0.08625 11.17125 -1 12 C-3.16826294 14.85816478 -3.03622526 16.80901218 -2.625 20.25 C-2.41875 21.4875 -2.2125 22.725 -2 24 C-9.6805543 21.71143755 -17.34249954 19.36446331 -25 17 C-24.67 14.69 -24.34 12.38 -24 10 C-22.948125 10.2475 -21.89625 10.495 -20.8125 10.75 C-16.94633751 11.3889842 -16.94633751 11.3889842 -14.0625 9.0625 C-13.381875 8.381875 -12.70125 7.70125 -12 7 C-12.33 6.01 -12.66 5.02 -13 4 C-9.16674383 1.29417212 -6.67461851 0.67386382 -2 1 C-1.67 1.66 -1.34 2.32 -1 3 C-0.67 2.01 -0.34 1.02 0 0 Z " fill="#B1BEC6" transform="translate(141,66)"/>
<path d="M0 0 C1.75 0.9375 1.75 0.9375 2.75 2.9375 C4.86327425 3.84475434 4.86327425 3.84475434 7.3125 4.5625 C8.55193359 4.95308594 8.55193359 4.95308594 9.81640625 5.3515625 C10.45449219 5.54492188 11.09257813 5.73828125 11.75 5.9375 C12.08 5.2775 12.41 4.6175 12.75 3.9375 C12.75 4.5975 12.75 5.2575 12.75 5.9375 C17.37 6.5975 21.99 7.2575 26.75 7.9375 C26.75 9.9175 26.75 11.8975 26.75 13.9375 C19.68295293 13.60097395 14.25176881 12.84007536 7.75 9.9375 C4.64722817 9.3811129 1.55083228 8.94369277 -1.578125 8.5625 C-4.43905548 7.8932765 -5.45229481 7.20310106 -7.25 4.9375 C-2.8452381 -0.07903439 -2.8452381 -0.07903439 0 0 Z " fill="#AD9685" transform="translate(90.25,68.0625)"/>
<path d="M0 0 C1.22589844 0.01353516 1.22589844 0.01353516 2.4765625 0.02734375 C3.41628906 0.04474609 3.41628906 0.04474609 4.375 0.0625 C3.95033503 1.83645508 3.5097591 3.60660631 3.0625 5.375 C2.81886719 6.36113281 2.57523438 7.34726563 2.32421875 8.36328125 C1.34622158 11.14433492 0.4932753 12.12074764 -1.625 14.0625 C-2.60215609 15.86440614 -2.60215609 15.86440614 -3.3125 17.75 C-3.745625 18.843125 -4.17875 19.93625 -4.625 21.0625 C-12.375 20.3125 -12.375 20.3125 -14.625 18.0625 C-15.615 18.0625 -16.605 18.0625 -17.625 18.0625 C-17.955 16.7425 -18.285 15.4225 -18.625 14.0625 C-17.75875 14.18625 -16.8925 14.31 -16 14.4375 C-11.78586274 13.96926253 -10.74432184 12.61185915 -8.1171875 9.47265625 C-6.34550035 7.79836552 -4.99831694 7.46484343 -2.625 7.0625 C-2.295 5.7425 -1.965 4.4225 -1.625 3.0625 C-3.275 3.0625 -4.925 3.0625 -6.625 3.0625 C-6.625 2.4025 -6.625 1.7425 -6.625 1.0625 C-4.21954362 -0.14022819 -2.67503047 -0.03821472 0 0 Z " fill="#ACB9C1" transform="translate(166.625,66.9375)"/>
<path d="M0 0 C0 1.65 0 3.3 0 5 C3.30567489 5.85387105 3.30567489 5.85387105 7 6 C9.46172153 4.207809 9.46172153 4.207809 11 2 C9.75023244 5.65316671 9.32901247 6.78065836 6 9 C3.8125 8.625 3.8125 8.625 2 8 C2 8.99 2 9.98 2 11 C1 12 0 13 -1 14 C-3.84896798 18.71175473 -4.5359652 22.61719631 -5 28 C-4.34 28 -3.68 28 -3 28 C-3 29.98 -3 31.96 -3 34 C-4.485 34.495 -4.485 34.495 -6 35 C-9.91374717 29.12937924 -7.64314403 22.09165994 -6.53515625 15.4765625 C-6 13 -6 13 -5 12 C-6.32 11.67 -7.64 11.34 -9 11 C-9.33 11.66 -9.66 12.32 -10 13 C-10.5625 9.875 -10.5625 9.875 -10 6 C-3.44034707 0 -3.44034707 0 0 0 Z " fill="#97AFC5" transform="translate(122,40)"/>
<path d="M0 0 C1.58203125 1.64453125 1.58203125 1.64453125 2.8125 3.8125 C3.23144531 4.52019531 3.65039062 5.22789063 4.08203125 5.95703125 C5 8 5 8 5 11 C2.02588876 12.23921302 -0.85262818 13.30058404 -4 14 C-4 13.34 -4 12.68 -4 12 C-8.455 11.01 -8.455 11.01 -13 10 C-13 7 -13 7 -11.42578125 5.17578125 C-10.72839844 4.56089844 -10.03101562 3.94601563 -9.3125 3.3125 C-8.62800781 2.68988281 -7.94351563 2.06726563 -7.23828125 1.42578125 C-4.52710709 -0.30123196 -3.15487895 -0.58385747 0 0 Z " fill="#3C3331" transform="translate(126,8)"/>
<path d="M0 0 C0.33 0 0.66 0 1 0 C1.33 1.65 1.66 3.3 2 5 C3.65 5 5.3 5 7 5 C6.67 5.66 6.34 6.32 6 7 C4.39794012 14.39052439 3.77799595 21.4518623 4 29 C0.37 28.34 -3.26 27.68 -7 27 C-6.67 26.34 -6.34 25.68 -6 25 C-5.01 25 -4.02 25 -3 25 C-3 24.34 -3 23.68 -3 23 C-2.01 22.67 -1.02 22.34 0 22 C0 17.05 0 12.1 0 7 C-2.97 9.475 -2.97 9.475 -6 12 C-5.67 10.35 -5.34 8.7 -5 7 C-4.01 6.67 -3.02 6.34 -2 6 C-0.77479736 2.99152582 -0.77479736 2.99152582 0 0 Z " fill="#D6E3EE" transform="translate(111,46)"/>
<path d="M0 0 C5.61 0.66 11.22 1.32 17 2 C16.67 3.65 16.34 5.3 16 7 C14.35965807 7.72904086 12.68698082 8.38655243 11 9 C9.31384218 10.64694485 7.64429829 12.31126121 6 14 C5.34 14 4.68 14 4 14 C3.32471777 12.42032193 2.66010306 10.83608097 2 9.25 C1.62875 8.36828125 1.2575 7.4865625 0.875 6.578125 C0 4 0 4 0 0 Z " fill="#C1CFD9" transform="translate(148,68)"/>
<path d="M0 0 C6.93 0 13.86 0 21 0 C21 0.33 21 0.66 21 1 C25.29 1.33 29.58 1.66 34 2 C34 2.33 34 2.66 34 3 C37.3 3.33 40.6 3.66 44 4 C44 4.33 44 4.66 44 5 C29.81 5 15.62 5 1 5 C0.67 3.35 0.34 1.7 0 0 Z " fill="#E6E8E1" transform="translate(26,23)"/>
<path d="M0 0 C2.97 0.495 2.97 0.495 6 1 C6 1.66 6 2.32 6 3 C7.32 2.67 8.64 2.34 10 2 C10.17835515 6.54805635 9.99785435 9.8794254 8 14 C6.35 13.67 4.7 13.34 3 13 C3 12.34 3 11.68 3 11 C2.38125 10.938125 1.7625 10.87625 1.125 10.8125 C-1 10 -1 10 -2.25 7.4375 C-2.4975 6.633125 -2.745 5.82875 -3 5 C-1.68 4.67 -0.36 4.34 1 4 C0.67 2.68 0.34 1.36 0 0 Z " fill="#CFB19D" transform="translate(116,21)"/>
<path d="M0 0 C3.52142777 0.11081889 7.04187564 0.24122073 10.5625 0.375 C12.0484668 0.42140625 12.0484668 0.42140625 13.56445312 0.46875 C19.04202523 0.68712497 23.8104654 1.20950139 29 3 C29 3.66 29 4.32 29 5 C16.79 5 4.58 5 -8 5 C-8 4.67 -8 4.34 -8 4 C-4.04 3.34 -0.08 2.68 4 2 C2.68 1.34 1.36 0.68 0 0 Z " fill="#927881" transform="translate(88,85)"/>
<path d="M0 0 C0.042721 1.66611905 0.04063832 3.33382885 0 5 C-0.33 5.33 -0.66 5.66 -1 6 C-1.23075082 7.34747084 -1.41153063 8.70377565 -1.5625 10.0625 C-1.706875 11.361875 -1.85125 12.66125 -2 14 C-1.34 14 -0.68 14 0 14 C0 14.66 0 15.32 0 16 C0.969375 16.12375 1.93875 16.2475 2.9375 16.375 C4.4534375 16.684375 4.4534375 16.684375 6 17 C6.33 17.66 6.66 18.32 7 19 C5.948125 18.7525 4.89625 18.505 3.8125 18.25 C-0.05366249 17.6110158 -0.05366249 17.6110158 -2.9375 19.9375 C-3.618125 20.618125 -4.29875 21.29875 -5 22 C-5.61875 21.319375 -5.61875 21.319375 -6.25 20.625 C-8.06408095 18.94049626 -9.75285627 18.00734029 -12 17 C-11.21625 16.773125 -10.4325 16.54625 -9.625 16.3125 C-6.85815779 15.22835589 -6.85815779 15.22835589 -5.6875 12.75 C-4.93355747 9.73422987 -4.85595862 7.09688972 -5 4 C-5.99 4 -6.98 4 -8 4 C-8 3.34 -8 2.68 -8 2 C-3.61016949 -1.20338983 -3.61016949 -1.20338983 0 0 Z " fill="#AA8D7A" transform="translate(130,20)"/>
<path d="M0 0 C4.92307692 4.18461538 4.92307692 4.18461538 5.3125 8.3125 C5.209375 9.199375 5.10625 10.08625 5 11 C4.71125 10.360625 4.4225 9.72125 4.125 9.0625 C3.17176549 6.84793921 3.17176549 6.84793921 1 6 C1 6.99 1 7.98 1 9 C-0.5 10.6875 -0.5 10.6875 -2 12 C-1.505 13.0828125 -1.505 13.0828125 -1 14.1875 C0.00603529 17.01697427 0.16977402 19.02895466 0 22 C-0.350625 21.566875 -0.70125 21.13375 -1.0625 20.6875 C-3.72627089 18.36744148 -6.76787514 17.37664577 -10 16 C-10.33 15.34 -10.66 14.68 -11 14 C-9.35 13.67 -7.7 13.34 -6 13 C-6.33 12.34 -6.66 11.68 -7 11 C-6.34 10.34 -5.68 9.68 -5 9 C-4.32707499 7.03309626 -4.32707499 7.03309626 -3.875 4.875 C-3.441875 2.956875 -3.441875 2.956875 -3 1 C-2.01 1.33 -1.02 1.66 0 2 C0 1.34 0 0.68 0 0 Z " fill="#AFBEC6" transform="translate(146,46)"/>
<path d="M0 0 C2 1.5625 2 1.5625 4 4 C4.25 7.75 4.25 7.75 4 11 C-0.86896303 10.40380045 -5.32790951 9.43023178 -10 8 C-9.67 5.69 -9.34 3.38 -9 1 C-7.88625 1.20625 -6.7725 1.4125 -5.625 1.625 C-3.830625 1.810625 -3.830625 1.810625 -2 2 C-1.34 1.34 -0.68 0.68 0 0 Z " fill="#99A8B2" transform="translate(126,75)"/>
<path d="M0 0 C8.39001357 1.29523251 16.08853669 4.0132516 24 7 C24 7.33 24 7.66 24 8 C20.7715237 8.17499733 17.54427074 8.28106618 14.3125 8.375 C12.94448242 8.45041016 12.94448242 8.45041016 11.54882812 8.52734375 C4.86968432 8.67307052 4.86968432 8.67307052 2.23974609 6.63769531 C0.85546875 4.9765625 0.85546875 4.9765625 -1 2 C-0.67 1.34 -0.34 0.68 0 0 Z " fill="#D1DBE1" transform="translate(113,82)"/>
<path d="M0 0 C0.66 0.66 1.32 1.32 2 2 C2.99 1.67 3.98 1.34 5 1 C5 3.31 5 5.62 5 8 C3.68 8.33 2.36 8.66 1 9 C0.67 10.65 0.34 12.3 0 14 C-0.66 14 -1.32 14 -2 14 C-2.33 14.66 -2.66 15.32 -3 16 C-4.32 16 -5.64 16 -7 16 C-7.33 14.68 -7.66 13.36 -8 12 C-7.01 11.67 -6.02 11.34 -5 11 C-5 9.02 -5 7.04 -5 5 C-3.68 5 -2.36 5 -1 5 C-0.67 3.35 -0.34 1.7 0 0 Z " fill="#A5BACD" transform="translate(104,55)"/>
<path d="M0 0 C0.33 0.66 0.66 1.32 1 2 C-0.19427286 4.73650671 -1.44471772 7.35238083 -2.8125 10 C-3.18181641 10.73734375 -3.55113281 11.4746875 -3.93164062 12.234375 C-6.71898191 17.71898191 -6.71898191 17.71898191 -9 20 C-9.12375 19.195625 -9.2475 18.39125 -9.375 17.5625 C-9.58125 16.716875 -9.7875 15.87125 -10 15 C-10.66 14.67 -11.32 14.34 -12 14 C-12.34474932 9.1735095 -11.797324 6.00949774 -9 2 C-5.8125 1.125 -5.8125 1.125 -3 1 C-3.33 1.763125 -3.66 2.52625 -4 3.3125 C-5.17436686 5.99069135 -5.17436686 5.99069135 -5 9 C-3.35 6.03 -1.7 3.06 0 0 Z " fill="#CEDEEB" transform="translate(129,52)"/>
<path d="M0 0 C0.33 0 0.66 0 1 0 C2.12880057 3.31114834 3.21302675 6.58978257 4 10 C1.02588876 11.23921302 -1.85262818 12.30058404 -5 13 C-5 13.66 -5 14.32 -5 15 C-4.01 15.33 -3.02 15.66 -2 16 C-2.78375 16.45375 -3.5675 16.9075 -4.375 17.375 C-7.03698031 18.88428742 -7.03698031 18.88428742 -9 21 C-11.31 20.34 -13.62 19.68 -16 19 C-16 18.67 -16 18.34 -16 18 C-13.69 18 -11.38 18 -9 18 C-7.44081984 15.32711972 -6.83427497 13.2096191 -6.1875 10.125 C-5.15332808 5.67138865 -3.16983571 3.25111355 0 0 Z " fill="#BFCFDC" transform="translate(133,57)"/>
<path d="M0 0 C0.66 0.33 1.32 0.66 2 1 C2.125 3.375 2.125 3.375 2 6 C1.34 6.66 0.68 7.32 0 8 C-1.29411783 10.74048482 -2.0074387 13.05207088 -2.4375 16.0625 C-3.05459926 19.28512945 -3.55507599 20.80799916 -6 23 C-9.1875 23.25 -9.1875 23.25 -12 23 C-11.67 20.69 -11.34 18.38 -11 16 C-11.66 16 -12.32 16 -13 16 C-13 15.34 -13 14.68 -13 14 C-12.01 14.33 -11.02 14.66 -10 15 C-9.67 15.99 -9.34 16.98 -9 18 C-8.43410156 16.86820313 -7.86820312 15.73640625 -7.28515625 14.5703125 C-4.85677083 9.71354167 -2.42838542 4.85677083 0 0 Z " fill="#95ABC0" transform="translate(130,52)"/>
<path d="M0 0 C4.70925902 3.02103409 6.73282192 5.55113424 8 11 C3.60841671 9.5361389 3.12052567 7.02168662 1 3 C-2.30325153 2.62714621 -3.61582806 2.70976555 -6.31640625 4.75 C-7.05761719 5.4925 -7.79882812 6.235 -8.5625 7 C-12.56944444 11 -12.56944444 11 -17 11 C-16.67660877 7.93821529 -16.40321087 6.39888457 -14.1796875 4.19921875 C-5.90829969 -1.22625088 -5.90829969 -1.22625088 0 0 Z " fill="#5B5453" transform="translate(125,6)"/>
<path d="M0 0 C5.445 1.485 5.445 1.485 11 3 C11 3.33 11 3.66 11 4 C10.38511719 4.09796875 9.77023438 4.1959375 9.13671875 4.296875 C4.00590695 5.13291046 4.00590695 5.13291046 -0.0625 8.125 C-0.371875 8.74375 -0.68125 9.3625 -1 10 C-3.64 9.67 -6.28 9.34 -9 9 C-9 6.33333333 -9 3.66666667 -9 1 C-7.35 1.99 -5.7 2.98 -4 4 C-2.68 2.68 -1.36 1.36 0 0 Z " fill="#ADBDC8" transform="translate(130,37)"/>
<path d="M0 0 C1.98 0 3.96 0 6 0 C6.05416188 1.60379341 6.09286638 3.20811406 6.125 4.8125 C6.14820313 5.70582031 6.17140625 6.59914063 6.1953125 7.51953125 C6 10 6 10 4 13 C4 14.32 4 15.64 4 17 C2.68 17.33 1.36 17.66 0 18 C0 12.06 0 6.12 0 0 Z " fill="#E5E8EB" transform="translate(148,0)"/>
<path d="M0 0 C20.79 0 41.58 0 63 0 C63 0.33 63 0.66 63 1 C62.39500671 1.00808685 61.79001343 1.01617371 61.16668701 1.02450562 C54.87246604 1.11053259 48.57856068 1.21003556 42.28466797 1.31738281 C39.93543801 1.35567666 37.58614934 1.39052879 35.23681641 1.421875 C31.86078906 1.46751627 28.48516609 1.52551299 25.109375 1.5859375 C24.05820496 1.59748871 23.00703491 1.60903992 21.92401123 1.62094116 C20.45293915 1.6507457 20.45293915 1.6507457 18.95214844 1.68115234 C18.09055115 1.69447601 17.22895386 1.70779968 16.34124756 1.7215271 C13.82052766 2.02134682 12.2211925 2.81733836 10 4 C7.640625 3.9765625 7.640625 3.9765625 5.25 3.625 C4.45078125 3.51414063 3.6515625 3.40328125 2.828125 3.2890625 C2.22484375 3.19367187 1.6215625 3.09828125 1 3 C0.67 2.01 0.34 1.02 0 0 Z " fill="#ECECE5" transform="translate(26,29)"/>
<path d="M0 0 C0 0.33 0 0.66 0 1 C3.3 1.33 6.6 1.66 10 2 C10 2.66 10 3.32 10 4 C6.04 3.67 2.08 3.34 -2 3 C-2 3.66 -2 4.32 -2 5 C-12.23 5 -22.46 5 -33 5 C-33 4.67 -33 4.34 -33 4 C-25.08 3.505 -25.08 3.505 -17 3 C-17 2.67 -17 2.34 -17 2 C-11.35600642 -0.44064587 -6.02248522 -0.19289099 0 0 Z " fill="#E4E6E4" transform="translate(44,49)"/>
<path d="M0 0 C2.70855454 0.3106694 5.41683388 0.62347745 8.125 0.9375 C9.26582031 1.06801758 9.26582031 1.06801758 10.4296875 1.20117188 C14.64329577 1.6915487 18.821195 2.25902978 23 3 C23 3.33 23 3.66 23 4 C19.37 4.33 15.74 4.66 12 5 C12 5.66 12 6.32 12 7 C6.06 6.01 6.06 6.01 0 5 C0 3.35 0 1.7 0 0 Z " fill="#CAD7E0" transform="translate(148,63)"/>
<path d="M0 0 C0.66 0 1.32 0 2 0 C2.33 6.27 2.66 12.54 3 19 C2.34 18.01 1.68 17.02 1 16 C0.34 16 -0.32 16 -1 16 C-1 16.66 -1 17.32 -1 18 C-2.98 17.67 -4.96 17.34 -7 17 C-6.34 16.34 -5.68 15.68 -5 15 C-4.83312552 12.41645782 -4.83312552 12.41645782 -5 10 C-3.35 10 -1.7 10 0 10 C-0.08378906 9.36191406 -0.16757813 8.72382812 -0.25390625 8.06640625 C-0.40666016 6.82697266 -0.40666016 6.82697266 -0.5625 5.5625 C-0.66691406 4.73878906 -0.77132812 3.91507813 -0.87890625 3.06640625 C-0.91886719 2.38449219 -0.95882812 1.70257813 -1 1 C-0.67 0.67 -0.34 0.34 0 0 Z " fill="#B7CBDF" transform="translate(109,53)"/>
<path d="M0 0 C-0.33 1.65 -0.66 3.3 -1 5 C5.93 5.495 5.93 5.495 13 6 C13 6.33 13 6.66 13 7 C10.36 7 7.72 7 5 7 C5 7.66 5 8.32 5 9 C3.37675914 9.22162329 1.751279 9.42689803 0.125 9.625 C-0.77992187 9.74101563 -1.68484375 9.85703125 -2.6171875 9.9765625 C-3.40351562 9.98429687 -4.18984375 9.99203125 -5 10 C-5.66 9.34 -6.32 8.68 -7 8 C-6.34 8 -5.68 8 -5 8 C-5.226875 7.236875 -5.45375 6.47375 -5.6875 5.6875 C-6 3 -6 3 -4.75 1.1875 C-3 0 -3 0 0 0 Z " fill="#B0B6BD" transform="translate(75,73)"/>
<path d="M0 0 C1 3 1 3 -0.546875 6.25 C-1.27073862 7.50611628 -2.00560431 8.75594144 -2.75 10 C-3.29140625 10.94359375 -3.29140625 10.94359375 -3.84375 11.90625 C-5.61959971 14.94321038 -7.31844724 17.69182801 -10 20 C-9.48964169 15.6109185 -8.47785723 12.66291938 -6 9 C-7.65 9.33 -9.3 9.66 -11 10 C-10.67 9.01 -10.34 8.02 -10 7 C-9.34 7 -8.68 7 -8 7 C-8 6.01 -8 5.02 -8 4 C-7.236875 4.0825 -6.47375 4.165 -5.6875 4.25 C-2.85416667 4.29166667 -2.85416667 4.29166667 -1.1875 2 C-0.795625 1.34 -0.40375 0.68 0 0 Z " fill="#ACBECE" transform="translate(132,44)"/>
<path d="M0 0 C5.61 0.66 11.22 1.32 17 2 C16.67 3.65 16.34 5.3 16 7 C14.08210287 6.71653722 12.16570817 6.4228972 10.25 6.125 C9.18265625 5.96257812 8.1153125 5.80015625 7.015625 5.6328125 C4.32291129 5.06776118 2.36427561 4.36577086 0 3 C0 2.01 0 1.02 0 0 Z " fill="#F4F5F6" transform="translate(148,68)"/>
<path d="M0 0 C2.31 0.33 4.62 0.66 7 1 C6.67 2.65 6.34 4.3 6 6 C6.66 6 7.32 6 8 6 C8 6.66 8 7.32 8 8 C4.04 8 0.08 8 -4 8 C-4.33 7.01 -4.66 6.02 -5 5 C-3.68 4.67 -2.36 4.34 -1 4 C-0.67 2.68 -0.34 1.36 0 0 Z " fill="#D3E0E9" transform="translate(69,82)"/>
<path d="M0 0 C3 2 3 2 3.8125 4.5 C3.874375 5.325 3.93625 6.15 4 7 C3.34 7.66 2.68 8.32 2 9 C0.68 9 -0.64 9 -2 9 C-2 8.34 -2 7.68 -2 7 C-2.78375 6.731875 -3.5675 6.46375 -4.375 6.1875 C-7 5 -7 5 -9 2 C-8 1 -8 1 -4.9375 0.9375 C-3.4834375 0.9684375 -3.4834375 0.9684375 -2 1 C-1.67 1.66 -1.34 2.32 -1 3 C-0.67 2.01 -0.34 1.02 0 0 Z " fill="#ABBAC3" transform="translate(141,66)"/>
<path d="M0 0 C0 0.66 0 1.32 0 2 C2.97 2.495 2.97 2.495 6 3 C6 3.33 6 3.66 6 4 C0.39 4.66 -5.22 5.32 -11 6 C-11 5.34 -11 4.68 -11 4 C-11.66 4 -12.32 4 -13 4 C-12.67 3.01 -12.34 2.02 -12 1 C-10.37512529 0.83211627 -8.75009558 0.66573213 -7.125 0.5 C-6.22007813 0.4071875 -5.31515625 0.314375 -4.3828125 0.21875 C-2 0 -2 0 0 0 Z " fill="#C4C4CC" transform="translate(88,84)"/>
<path d="M0 0 C1.12438477 0.14985352 1.12438477 0.14985352 2.27148438 0.30273438 C4.11931482 0.54989641 5.9660266 0.80539611 7.8125 1.0625 C7.8125 2.3825 7.8125 3.7025 7.8125 5.0625 C4.19382441 6.2687252 0.88743749 6.17066918 -2.875 6.125 C-3.57689453 6.12048828 -4.27878906 6.11597656 -5.00195312 6.11132812 C-6.73050538 6.09956927 -8.45901365 6.08163454 -10.1875 6.0625 C-10.1875 5.7325 -10.1875 5.4025 -10.1875 5.0625 C-9.13949219 4.97162109 -9.13949219 4.97162109 -8.0703125 4.87890625 C-7.16023438 4.79511719 -6.25015625 4.71132812 -5.3125 4.625 C-4.40757813 4.54378906 -3.50265625 4.46257812 -2.5703125 4.37890625 C-0.17639139 4.19260715 -0.17639139 4.19260715 1.8125 3.0625 C0.95785156 3.01351562 0.10320312 2.96453125 -0.77734375 2.9140625 C-2.43443359 2.80191406 -2.43443359 2.80191406 -4.125 2.6875 C-5.22714844 2.61789063 -6.32929687 2.54828125 -7.46484375 2.4765625 C-8.36332031 2.33992188 -9.26179688 2.20328125 -10.1875 2.0625 C-10.5175 1.4025 -10.8475 0.7425 -11.1875 0.0625 C-7.28297658 -1.23900781 -3.98289691 -0.56004053 0 0 Z " fill="#C0C6CA" transform="translate(90.1875,75.9375)"/>
<path d="M0 0 C2.87255066 2.42195448 3.70838919 4.59742703 4.6875 8.1875 C5.06455078 9.53908203 5.06455078 9.53908203 5.44921875 10.91796875 C5.63097656 11.60503906 5.81273437 12.29210937 6 13 C3.6484375 13.140625 3.6484375 13.140625 1 13 C-1.375 10.75 -1.375 10.75 -3 8 C-2.8186588 5.00787014 -1.40552069 2.62363861 0 0 Z " fill="#91A5B4" transform="translate(146,69)"/>
<path d="M0 0 C0.33 0 0.66 0 1 0 C1.33 1.65 1.66 3.3 2 5 C3.65 5 5.3 5 7 5 C6.67 5.66 6.34 6.32 6 7 C5.77532169 8.53668865 5.59203195 10.07968054 5.4375 11.625 C5.35371094 12.44226562 5.26992187 13.25953125 5.18359375 14.1015625 C5.12300781 14.72804688 5.06242187 15.35453125 5 16 C4.67 16 4.34 16 4 16 C3.67 14.35 3.34 12.7 3 11 C2.34 11 1.68 11 1 11 C0.67 9.68 0.34 8.36 0 7 C-2.97 9.475 -2.97 9.475 -6 12 C-5.67 10.35 -5.34 8.7 -5 7 C-4.01 6.67 -3.02 6.34 -2 6 C-0.77479736 2.99152582 -0.77479736 2.99152582 0 0 Z " fill="#C2D4E3" transform="translate(111,46)"/>
<path d="M0 0 C0.33 0.66 0.66 1.32 1 2 C3.33744294 2.46806645 5.69739079 2.82669794 8.0625 3.125 C9.99802734 3.37636719 9.99802734 3.37636719 11.97265625 3.6328125 C12.97167969 3.75398438 13.97070312 3.87515625 15 4 C15 4.99 15 5.98 15 7 C9.53891111 8.4002792 5.30723432 7.42705634 0 6 C0 4.02 0 2.04 0 0 Z " fill="#BE9D83" transform="translate(102,72)"/>
<path d="M0 0 C1.75 0.9375 1.75 0.9375 2.75 2.9375 C4.72888961 3.66443904 6.72954558 4.33566251 8.75 4.9375 C8.75 5.2675 8.75 5.5975 8.75 5.9375 C3.9750791 6.89248418 -0.40139376 7.17993031 -5.25 6.9375 C-5.91 6.2775 -6.57 5.6175 -7.25 4.9375 C-2.8452381 -0.07903439 -2.8452381 -0.07903439 0 0 Z " fill="#BEA390" transform="translate(90.25,68.0625)"/>
<path d="M0 0 C2.31 0 4.62 0 7 0 C6.67 0.66 6.34 1.32 6 2 C11.28 2.66 16.56 3.32 22 4 C22 4.33 22 4.66 22 5 C16.63904667 6.12862175 11.44693314 6.09688221 6 6 C6 5.67 6 5.34 6 5 C3.69 4.34 1.38 3.68 -1 3 C-0.67 2.01 -0.34 1.02 0 0 Z " fill="#8B8E90" transform="translate(74,75)"/>
<path d="M0 0 C1.53166168 4.08443115 0.63081652 7.79455657 0 12 C-3.63 12 -7.26 12 -11 12 C-11 11.01 -11 10.02 -11 9 C-8.69 9.33 -6.38 9.66 -4 10 C-3.8453125 8.9171875 -3.8453125 8.9171875 -3.6875 7.8125 C-2.94013068 4.75508007 -1.71954811 2.61670365 0 0 Z " fill="#8D9AA1" transform="translate(166,78)"/>
<path d="M0 0 C1.1446875 0.3403125 1.1446875 0.3403125 2.3125 0.6875 C0.8275 2.1725 0.8275 2.1725 -0.6875 3.6875 C0.29056895 7.19224706 1.18296341 9.52835504 3.5 12.375 C4.3971875 13.5196875 4.3971875 13.5196875 5.3125 14.6875 C4.9825 15.6775 4.6525 16.6675 4.3125 17.6875 C3.9825 16.6975 3.6525 15.7075 3.3125 14.6875 C2.6525 14.6875 1.9925 14.6875 1.3125 14.6875 C-0.0075 12.0475 -1.3275 9.4075 -2.6875 6.6875 C-4.0075 7.6775 -5.3275 8.6675 -6.6875 9.6875 C-6.0875 3.3275 -6.0875 3.3275 -4.4375 0.6875 C-2.6875 -0.3125 -2.6875 -0.3125 0 0 Z " fill="#B9C9D5" transform="translate(135.6875,52.3125)"/>
<path d="M0 0 C0 1.65 0 3.3 0 5 C-0.99 5.495 -0.99 5.495 -2 6 C-2.66 5.67 -3.32 5.34 -4 5 C-4.33 6.65 -4.66 8.3 -5 10 C-5.639375 10.12375 -6.27875 10.2475 -6.9375 10.375 C-7.618125 10.58125 -8.29875 10.7875 -9 11 C-9.33 11.66 -9.66 12.32 -10 13 C-10.5625 9.875 -10.5625 9.875 -10 6 C-3.44034707 0 -3.44034707 0 0 0 Z " fill="#97ADC3" transform="translate(122,40)"/>
<path d="M0 0 C2.14576637 -0.02685938 4.29162645 -0.04633088 6.4375 -0.0625 C7.63246094 -0.07410156 8.82742187 -0.08570313 10.05859375 -0.09765625 C13 0 13 0 14 1 C15.34747084 1.23075082 16.70377565 1.41153063 18.0625 1.5625 C19.361875 1.706875 20.66125 1.85125 22 2 C22 2.33 22 2.66 22 3 C14.74 3 7.48 3 0 3 C0 2.01 0 1.02 0 0 Z " fill="#E6E7E3" transform="translate(27,36)"/>
<path d="M0 0 C1.65 0 3.3 0 5 0 C5.33 1.65 5.66 3.3 6 5 C5.01 5.33 4.02 5.66 3 6 C2.67 6.66 2.34 7.32 2 8 C0.68 8 -0.64 8 -2 8 C-2.33 6.68 -2.66 5.36 -3 4 C-2.01 3.67 -1.02 3.34 0 3 C0 2.01 0 1.02 0 0 Z " fill="#94ACC3" transform="translate(99,63)"/>
<path d="M0 0 C1.85776765 3.13498292 2.20140476 5.37471432 2 9 C1.649375 8.566875 1.29875 8.13375 0.9375 7.6875 C-1.72627089 5.36744148 -4.76787514 4.37664577 -8 3 C-8.33 2.34 -8.66 1.68 -9 1 C-5.846632 0.29925156 -3.27275026 0 0 0 Z " fill="#A2B2BC" transform="translate(144,59)"/>
<path d="M0 0 C0.26252625 4.33168317 -0.70756464 7.8803623 -2 12 C-2.66 12 -3.32 12 -4 12 C-4.33 9.36 -4.66 6.72 -5 4 C-5.99 4 -6.98 4 -8 4 C-8 3.34 -8 2.68 -8 2 C-3.61016949 -1.20338983 -3.61016949 -1.20338983 0 0 Z " fill="#AD836C" transform="translate(130,20)"/>
<path d="M0 0 C0.33 0.66 0.66 1.32 1 2 C-0.19427286 4.73650671 -1.44471772 7.35238083 -2.8125 10 C-3.18181641 10.73734375 -3.55113281 11.4746875 -3.93164062 12.234375 C-6.71898191 17.71898191 -6.71898191 17.71898191 -9 20 C-9.12375 19.195625 -9.2475 18.39125 -9.375 17.5625 C-9.58125 16.716875 -9.7875 15.87125 -10 15 C-10.66 14.67 -11.32 14.34 -12 14 C-11.67 13.34 -11.34 12.68 -11 12 C-10.34 12 -9.68 12 -9 12 C-8.34 11.34 -7.68 10.68 -7 10 C-6.67 10.33 -6.34 10.66 -6 11 C-4.02 7.37 -2.04 3.74 0 0 Z " fill="#C4D5E3" transform="translate(129,52)"/>
<path d="M0 0 C0.99 0.33 1.98 0.66 3 1 C3.33 1.99 3.66 2.98 4 4 C4.66 3.34 5.32 2.68 6 2 C6.99 2.99 7.98 3.98 9 5 C8.34 6.32 7.68 7.64 7 9 C5.02 9 3.04 9 1 9 C1.33 6.69 1.66 4.38 2 2 C1.34 2 0.68 2 0 2 C0 1.34 0 0.68 0 0 Z " fill="#A7B9CA" transform="translate(117,66)"/>
<path d="M0 0 C2.4375 0.8125 2.4375 0.8125 5 2 C6 5 6 5 5 8 C3 7 3 7 2 6 C1.67 6.99 1.34 7.98 1 9 C1 8.34 1 7.68 1 7 C0.34 7 -0.32 7 -1 7 C-1.04254356 5.00045254 -1.04080783 2.99958364 -1 1 C-0.67 0.67 -0.34 0.34 0 0 Z " fill="#C5B4AB" transform="translate(109,16)"/>
<path d="M0 0 C4.95 0 9.9 0 15 0 C11 4 11 4 8.421875 4.171875 C7.09929688 3.96304688 7.09929688 3.96304688 5.75 3.75 C4.85796875 3.62109375 3.9659375 3.4921875 3.046875 3.359375 C2.03367187 3.18148437 2.03367187 3.18148437 1 3 C0.67 2.01 0.34 1.02 0 0 Z " fill="#E4E6E1" transform="translate(26,29)"/>
<path d="M0 0 C0.33 0.66 0.66 1.32 1 2 C-1.25 4.5625 -1.25 4.5625 -4 7 C-6.3125 6.8125 -6.3125 6.8125 -8 6 C-8 6.99 -8 7.98 -8 9 C-9.375 10.6875 -9.375 10.6875 -11 12 C-11.66 12 -12.32 12 -13 12 C-12.35455571 8.51460083 -10.89865603 5.97180943 -9 3 C-6.03 3.495 -6.03 3.495 -3 4 C-2.01 2.68 -1.02 1.36 0 0 Z " fill="#91A9BF" transform="translate(132,42)"/>
<path d="M0 0 C0.33 0.99 0.66 1.98 1 3 C5.95 3.33 10.9 3.66 16 4 C16 4.99 16 5.98 16 7 C14.08268082 6.88544319 12.1661325 6.75793742 10.25 6.625 C9.18265625 6.55539063 8.1153125 6.48578125 7.015625 6.4140625 C4.19793568 6.0271777 2.4169634 5.44313834 0 4 C0 2.68 0 1.36 0 0 Z " fill="#A68773" transform="translate(101,75)"/>
<path d="M0 0 C0.66 0 1.32 0 2 0 C2 0.66 2 1.32 2 2 C2.66 2.33 3.32 2.66 4 3 C2.68 5.31 1.36 7.62 0 10 C-0.99 9.67 -1.98 9.34 -3 9 C-2.44271087 5.65626525 -1.64826111 2.96687001 0 0 Z " fill="#B8C6CE" transform="translate(137,73)"/>
<path d="M0 0 C2.64 0.66 5.28 1.32 8 2 C8 2.66 8 3.32 8 4 C5.03 3.505 5.03 3.505 2 3 C2.33 4.32 2.66 5.64 3 7 C1.35 7.33 -0.3 7.66 -2 8 C-2.33 6.68 -2.66 5.36 -3 4 C-1 5 -1 5 0 6 C0 4.02 0 2.04 0 0 Z " fill="#AE8F7D" transform="translate(114,18)"/>
<path d="M0 0 C0.33 0 0.66 0 1 0 C1 1.65 1 3.3 1 5 C0.34 5 -0.32 5 -1 5 C-0.67 5.99 -0.34 6.98 0 8 C-0.33 8.66 -0.66 9.32 -1 10 C-1.66 10 -2.32 10 -3 10 C-3.33 10.66 -3.66 11.32 -4 12 C-4.8125 9.375 -4.8125 9.375 -5 6 C-3.59075699 3.58415483 -2.006987 2.006987 0 0 Z " fill="#CDDCE9" transform="translate(133,57)"/>
<path d="M0 0 C3 1 3 1 4 3 C6.52733235 3.65555119 6.52733235 3.65555119 9 4 C9.33 5.98 9.66 7.96 10 10 C8.51180543 9.0980639 7.03467187 8.17785871 5.5625 7.25 C4.73878906 6.73953125 3.91507813 6.2290625 3.06640625 5.703125 C0.78255407 3.8207818 0.34485543 2.8842454 0 0 Z " fill="#3E3635" transform="translate(134,33)"/>
<path d="M0 0 C0.33 0 0.66 0 1 0 C1.33 2.64 1.66 5.28 2 8 C2.66 8 3.32 8 4 8 C3.67 9.32 3.34 10.64 3 12 C2.34 12 1.68 12 1 12 C-1.44576827 8.33134759 -1.23607254 6.32799657 -1 2 C-0.67 1.34 -0.34 0.68 0 0 Z " fill="#5D789B" transform="translate(115,63)"/>
<path d="M0 0 C1.6396875 0.2475 1.6396875 0.2475 3.3125 0.5 C6.87525873 1.06718184 6.87525873 1.06718184 10 1 C9.67 1.99 9.34 2.98 9 4 C6.03 3.67 3.06 3.34 0 3 C0 2.01 0 1.02 0 0 Z " fill="#ACBDC7" transform="translate(117,76)"/>
<path d="M0 0 C1.98 0 3.96 0 6 0 C5.21625 0.61875 4.4325 1.2375 3.625 1.875 C1.03162353 3.89858661 1.03162353 3.89858661 -1 6 C-3.31 5.34 -5.62 4.68 -8 4 C-8 3.67 -8 3.34 -8 3 C-5.69 3 -3.38 3 -1 3 C-0.67 2.01 -0.34 1.02 0 0 Z " fill="#CAD9E4" transform="translate(125,72)"/>
<path d="M0 0 C2.97 0.495 2.97 0.495 6 1 C5.34 2.65 4.68 4.3 4 6 C2.35 5.67 0.7 5.34 -1 5 C-0.34 4.67 0.32 4.34 1 4 C0.67 2.68 0.34 1.36 0 0 Z " fill="#CCAA92" transform="translate(116,21)"/>
<path d="M0 0 C0.99 0 1.98 0 3 0 C3.66 2.31 4.32 4.62 5 7 C3.02 6.34 1.04 5.68 -1 5 C-0.67 3.35 -0.34 1.7 0 0 Z " fill="#A4B5BE" transform="translate(134,83)"/>
<path d="M0 0 C1.65 0 3.3 0 5 0 C5 1.32 5 2.64 5 4 C4.01 4 3.02 4 2 4 C2.33 4.99 2.66 5.98 3 7 C2.01 7.33 1.02 7.66 0 8 C-0.66 7.34 -1.32 6.68 -2 6 C-1.34 5.67 -0.68 5.34 0 5 C0 3.35 0 1.7 0 0 Z " fill="#A7BCD3" transform="translate(104,63)"/>
<path d="M0 0 C2.22984785 1.76529621 2.93915901 2.65233722 3.4375 5.5 C3 8 3 8 1 9.8125 C0.34 10.204375 -0.32 10.59625 -1 11 C-1.14285714 3.57142857 -1.14285714 3.57142857 0 0 Z " fill="#322927" transform="translate(130,21)"/>
<path d="M0 0 C0.99 0 1.98 0 3 0 C3 2.97 3 5.94 3 9 C2.01 9.33 1.02 9.66 0 10 C0 6.7 0 3.4 0 0 Z " fill="#DCE1E1" transform="translate(148,0)"/>
<path d="M0 0 C3.63 0.66 7.26 1.32 11 2 C11 2.33 11 2.66 11 3 C8 4 5 5 2 6 C1.34 4.02 0.68 2.04 0 0 Z " fill="#D2DFE8" transform="translate(148,71)"/>
<path d="M0 0 C1.53166168 4.08443115 0.63081652 7.79455657 0 12 C-0.66 10.68 -1.32 9.36 -2 8 C-2.99 8.495 -2.99 8.495 -4 9 C-2.94124926 5.59687262 -1.99097846 2.98646769 0 0 Z " fill="#98A2A7" transform="translate(166,78)"/>
<path d="M0 0 C0 0.33 0 0.66 0 1 C-2.64 1 -5.28 1 -8 1 C-8 1.66 -8 2.32 -8 3 C-10.97 3 -13.94 3 -17 3 C-17 2.67 -17 2.34 -17 2 C-11.35600642 -0.44064587 -6.02248522 -0.19289099 0 0 Z " fill="#979FA1" transform="translate(88,79)"/>
<path d="M0 0 C0.97582031 0.00902344 1.95164063 0.01804687 2.95703125 0.02734375 C3.69308594 0.03894531 4.42914063 0.05054687 5.1875 0.0625 C5.1875 0.3925 5.1875 0.7225 5.1875 1.0625 C-0.2575 1.5575 -0.2575 1.5575 -5.8125 2.0625 C-5.8125 2.7225 -5.8125 3.3825 -5.8125 4.0625 C-8.2875 3.0725 -8.2875 3.0725 -10.8125 2.0625 C-10.8125 1.7325 -10.8125 1.4025 -10.8125 1.0625 C-7.13862505 0.20951624 -3.7677607 -0.04539471 0 0 Z " fill="#C0CDD6" transform="translate(165.8125,65.9375)"/>
<path d="M0 0 C0.33 0.66 0.66 1.32 1 2 C0.34 2.66 -0.32 3.32 -1 4 C-1 4.99 -1 5.98 -1 7 C-2.65 7 -4.3 7 -6 7 C-6.33 6.01 -6.66 5.02 -7 4 C-6.34 4 -5.68 4 -5 4 C-3.97895449 3.02149805 -2.9793879 2.02019573 -2 1 C-1.34 0.67 -0.68 0.34 0 0 Z " fill="#A9BDCF" transform="translate(98,64)"/>
<path d="M0 0 C3.96 0 7.92 0 12 0 C12 0.33 12 0.66 12 1 C8.7 1.66 5.4 2.32 2 3 C2 3.66 2 4.32 2 5 C1.34 5 0.68 5 0 5 C0 3.35 0 1.7 0 0 Z " fill="#E8EAE7" transform="translate(0,50)"/>
<path d="M0 0 C0 1.65 0 3.3 0 5 C-0.99 5.495 -0.99 5.495 -2 6 C-2.66 5.67 -3.32 5.34 -4 5 C-4.33 5.99 -4.66 6.98 -5 8 C-5.33 6.68 -5.66 5.36 -6 4 C-1.125 0 -1.125 0 0 0 Z " fill="#8A8A93" transform="translate(122,40)"/>
<path d="M0 0 C0.66 0 1.32 0 2 0 C2 0.66 2 1.32 2 2 C2.99 2.33 3.98 2.66 5 3 C5.33 4.65 5.66 6.3 6 8 C4.68 8 3.36 8 2 8 C1.34 5.36 0.68 2.72 0 0 Z " fill="#B99B8D" transform="translate(108,23)"/>
<path d="M0 0 C4.21422242 2.88341534 5.76075855 5.04303419 7 10 C2.57320993 8.52440331 2.08567304 6.09942632 0 2 C0 1.34 0 0.68 0 0 Z " fill="#6C5649" transform="translate(126,7)"/>
<path d="M0 0 C2.31 0 4.62 0 7 0 C6.01 0.33 5.02 0.66 4 1 C4.33 1.99 4.66 2.98 5 4 C3.35 4 1.7 4 0 4 C0 2.68 0 1.36 0 0 Z " fill="#756B71" transform="translate(74,75)"/>
<path d="M0 0 C2.89932357 2.39509338 3.50168276 4.31245243 4 8 C2.68 7.67 1.36 7.34 0 7 C-1.125 2.25 -1.125 2.25 0 0 Z " fill="#A1B3BF" transform="translate(146,69)"/>
<path d="M0 0 C1.9375 1.1875 1.9375 1.1875 3.9375 3.1875 C0.73687313 4.78781344 -1.78521806 3.21923691 -5.0625 2.1875 C-5.0625 1.5275 -5.0625 0.8675 -5.0625 0.1875 C-2.0625 -0.8125 -2.0625 -0.8125 0 0 Z " fill="#B4C6D3" transform="translate(133.0625,69.8125)"/>
<path d="M0 0 C0.33 0.99 0.66 1.98 1 3 C-0.9375 5.6875 -0.9375 5.6875 -3 8 C-5.475 7.01 -5.475 7.01 -8 6 C-8 5.34 -8 4.68 -8 4 C-7.236875 4.0825 -6.47375 4.165 -5.6875 4.25 C-2.85416667 4.29166667 -2.85416667 4.29166667 -1.1875 2 C-0.795625 1.34 -0.40375 0.68 0 0 Z " fill="#A7BACA" transform="translate(132,44)"/>
<path d="M0 0 C0.66 0 1.32 0 2 0 C2.66 2.97 3.32 5.94 4 9 C-0.875 4.25 -0.875 4.25 -2 2 C-1.34 2 -0.68 2 0 2 C0 1.34 0 0.68 0 0 Z " fill="#564237" transform="translate(131,17)"/>
<path d="M0 0 C0.66 0 1.32 0 2 0 C2 2.97 2 5.94 2 9 C1.01 9.495 1.01 9.495 0 10 C-0.19412181 8.52168779 -0.38012131 7.04230684 -0.5625 5.5625 C-0.66691406 4.73878906 -0.77132812 3.91507813 -0.87890625 3.06640625 C-0.91886719 2.38449219 -0.95882812 1.70257813 -1 1 C-0.67 0.67 -0.34 0.34 0 0 Z " fill="#AEC3D5" transform="translate(109,53)"/>
<path d="M0 0 C0.639375 0.144375 1.27875 0.28875 1.9375 0.4375 C5.93844788 1.17236798 9.95504896 1.58581111 14 2 C14 2.33 14 2.66 14 3 C12.22925083 3.02705729 10.45838289 3.04642195 8.6875 3.0625 C7.70136719 3.07410156 6.71523437 3.08570312 5.69921875 3.09765625 C3 3 3 3 0 2 C0 1.34 0 0.68 0 0 Z " fill="#C2C5C7" transform="translate(100,79)"/>
<path d="M0 0 C2.64 0 5.28 0 8 0 C8 1.65 8 3.3 8 5 C5.36 3.68 2.72 2.36 0 1 C0 0.67 0 0.34 0 0 Z " fill="#AABAC3" transform="translate(129,73)"/>
<path d="M0 0 C1.32 0.66 2.64 1.32 4 2 C3.49396008 4.16874252 3.00016187 5.99967627 2 8 C1.34 7.67 0.68 7.34 0 7 C-0.6875 4 -0.6875 4 -1 1 C-0.67 0.67 -0.34 0.34 0 0 Z " fill="#C2B0A3" transform="translate(121,38)"/>
<path d="M0 0 C0.598125 0.350625 1.19625 0.70125 1.8125 1.0625 C1.8125 1.3925 1.8125 1.7225 1.8125 2.0625 C0.1625 2.0625 -1.4875 2.0625 -3.1875 2.0625 C-3.1875 2.7225 -3.1875 3.3825 -3.1875 4.0625 C-4.1775 3.7325 -5.1675 3.4025 -6.1875 3.0625 C-5.8575 2.0725 -5.5275 1.0825 -5.1875 0.0625 C-2.1875 -0.9375 -2.1875 -0.9375 0 0 Z " fill="#9EB0BC" transform="translate(122.1875,78.9375)"/>
<path d="M0 0 C1.32 0.33 2.64 0.66 4 1 C4.144375 1.61875 4.28875 2.2375 4.4375 2.875 C4.93152225 5.03258322 4.93152225 5.03258322 6 7 C5.01 7 4.02 7 3 7 C0 2.77777778 0 2.77777778 0 0 Z " fill="#B8C9D1" transform="translate(127,74)"/>
<path d="M0 0 C0.33 0 0.66 0 1 0 C1 2.31 1 4.62 1 7 C-0.65 6.67 -2.3 6.34 -4 6 C-3.67 5.01 -3.34 4.02 -3 3 C-2.01 3.33 -1.02 3.66 0 4 C0 2.68 0 1.36 0 0 Z " fill="#889DB3" transform="translate(108,56)"/>
<path d="M0 0 C4.92307692 4.18461538 4.92307692 4.18461538 5.3125 8.3125 C5.209375 9.199375 5.10625 10.08625 5 11 C4.731875 10.4225 4.46375 9.845 4.1875 9.25 C3.05815166 6.94603902 3.05815166 6.94603902 1.375 4.9375 C0 3 0 3 0 0 Z " fill="#76665E" transform="translate(146,46)"/>
<path d="M0 0 C5.41538462 -0.36923077 5.41538462 -0.36923077 8.375 1.5 C8.91125 1.995 9.4475 2.49 10 3 C8.5199159 2.88637738 7.04089926 2.75877092 5.5625 2.625 C4.73878906 2.55539063 3.91507812 2.48578125 3.06640625 2.4140625 C2.38449219 2.27742188 1.70257813 2.14078125 1 2 C0.67 1.34 0.34 0.68 0 0 Z " fill="#C4C3CF" transform="translate(105,84)"/>
<path d="M0 0 C0.99 0.33 1.98 0.66 3 1 C2.625 2.9375 2.625 2.9375 2 5 C1.01 5.495 1.01 5.495 0 6 C0 5.34 0 4.68 0 4 C-0.66 4 -1.32 4 -2 4 C-1.34 2.68 -0.68 1.36 0 0 Z " fill="#A3837C" transform="translate(69,70)"/>
<path d="M0 0 C0.99 0.33 1.98 0.66 3 1 C2.67 1.99 2.34 2.98 2 4 C0.02 4.33 -1.96 4.66 -4 5 C-3 2 -3 2 0 0 Z " fill="#BACDDD" transform="translate(125,49)"/>
<path d="M0 0 C0 2.33333333 0 4.66666667 0 7 C-1.32 7 -2.64 7 -4 7 C-3.6875 4.625 -3.6875 4.625 -3 2 C-2.01 1.34 -1.02 0.68 0 0 Z " fill="#837E83" transform="translate(112,10)"/>
<path d="M0 0 C0.66 0.33 1.32 0.66 2 1 C1.34 3.31 0.68 5.62 0 8 C-0.66 8 -1.32 8 -2 8 C-2.33 6.68 -2.66 5.36 -3 4 C-2.01 3.67 -1.02 3.34 0 3 C0 2.01 0 1.02 0 0 Z " fill="#8CA5BB" transform="translate(99,63)"/>
<path d="M0 0 C0.99 0.33 1.98 0.66 3 1 C3.33 1.99 3.66 2.98 4 4 C3.01 5.485 3.01 5.485 2 7 C2 6.34 2 5.68 2 5 C1.34 5 0.68 5 0 5 C0 3.35 0 1.7 0 0 Z " fill="#D2CBC5" transform="translate(108,18)"/>
</svg>
